<?xml version="1.0" encoding="utf-8"?>
<!-- Generator: Adobe Illustrator 20.1.0, SVG Export Plug-In . SVG Version: 6.00 Build 0)  -->
<svg version="1.1" id="Calque_1" xmlns="http://www.w3.org/2000/svg" xmlns:xlink="http://www.w3.org/1999/xlink" x="0px" y="0px"
	 viewBox="0 0 563 236" style="enable-background:new 0 0 563 236;" xml:space="preserve">
<style type="text/css">
	.st0{fill:#A0A0A0;}
	.st1{filter:url(#Adobe_OpacityMaskFilter);}
	.st2{fill:#FFFFFF;}
	.st3{mask:url(#mask-2);fill:#A0A0A0;}
	.st4{filter:url(#Adobe_OpacityMaskFilter_1_);}
	.st5{mask:url(#mask-4);fill:#A0A0A0;}
	.st6{filter:url(#Adobe_OpacityMaskFilter_2_);}
	.st7{mask:url(#mask-6);fill:#A0A0A0;}
</style>
<title>Page 1</title>
<desc>Created with Sketch.</desc>
<g id="Page-1_1_">
	<g id="VF-TdA" transform="translate(-439.000000, -313.000000)">
		<g id="Page-1" transform="translate(439.000000, 312.000000)">
			<path id="Fill-1" class="st0" d="M118.8,193c0-4.6-2.1-6.3-4.2-6.3c-2,0-4.2,1.6-4.2,6.3c0,4.6,2.1,6.2,4.2,6.2
				C116.7,199.3,118.8,197.6,118.8,193 M121.6,203.4l-8.4-3.5c-3.5-0.5-5.7-2.8-5.7-6.9c0-4.4,3.4-7.1,7.1-7.1
				c3.9,0,7.1,2.2,7.1,7.1c0,3.7-2.6,6.4-5.9,6.9l8.6,2.2c1.3,0.3,2.7,0.6,3.9,0.6c0.9,0,1.9-0.3,2.7-0.8l0.3,0.4
				c-1.6,1.3-3.7,2-5.5,2C124.2,204.4,123,204,121.6,203.4"/>
			<path id="Fill-3" class="st0" d="M130.4,194.3v-5.4c0-1.7-0.1-1.8-0.9-2l-0.7-0.2v-0.3h6v0.3l-0.7,0.2c-0.8,0.2-0.9,0.4-0.9,2
				v5.5c0,2.2,0.8,4.4,3.5,4.4c2.7,0,3.4-2.4,3.4-4.8v-2.3c0-4.4-0.2-4.6-1-4.8l-0.8-0.2v-0.3h4.8v0.3l-0.7,0.2
				c-0.8,0.2-0.9,0.5-0.9,3.9v2.7c0,3.5-1.1,6.7-5.5,6.7C132.2,200.1,130.4,197.7,130.4,194.3"/>
			<path id="Fill-5" class="st0" d="M155.3,190.3c-0.3-0.8-0.5-1.6-0.6-1.9h-0.1c-0.1,0.4-0.4,1.3-0.7,2l-1.4,3.8h4.1L155.3,190.3z
				 M156.5,199.8v-0.3l0.8-0.2c0.8-0.2,0.9-0.4,0.3-2l-0.7-2.1h-4.8l-0.5,1.5c-0.7,1.9-0.7,2.4,0.2,2.6l0.8,0.2v0.3h-4.4v-0.3
				l0.5-0.2c0.6-0.2,0.8-0.5,1.5-2.3l3-7.3c0.9-2.2,0.9-2.6,0.1-2.8l-0.8-0.2v-0.3h6.1v0.3l-0.8,0.2c-0.8,0.2-0.7,0.6,0.1,2.8
				l2.8,7.5c0.6,1.6,0.8,1.8,1.4,2.1l0.5,0.2v0.3H156.5z"/>
			<path id="Fill-7" class="st0" d="M169.1,199.8v-0.3l0.7-0.2c0.8-0.2,0.9-0.4,0.9-2v-8.3c0-1.7-0.1-1.8-0.9-2l-0.7-0.2v-0.3h6v0.3
				l-0.7,0.2c-0.8,0.2-0.9,0.4-0.9,2v8.3c0,1.7,0.1,1.8,0.9,2l0.7,0.2v0.3H169.1z"/>
			<path id="Fill-9" class="st0" d="M198.3,187.1c-0.7,0-1.5,0.1-1.9,0.1v9.7c0,1.9,0.2,2.1,1.1,2.1h0.7c3,0,5.4-1.8,5.4-5.9
				C203.5,189,201.5,187.1,198.3,187.1 M198.6,199.8H192v-0.3l0.7-0.2c0.8-0.2,0.9-0.4,0.9-2v-8.3c0-1.7-0.1-1.8-0.9-2l-0.7-0.2
				v-0.3c1.8,0,4.5-0.1,6.7-0.1c3.8,0,7.8,1.4,7.8,6.5C206.5,197.1,202.8,199.8,198.6,199.8"/>
			<path id="Fill-11" class="st0" d="M213.7,199.8v-0.3l0.7-0.2c0.8-0.2,0.9-0.4,0.9-2v-8.3c0-1.7-0.1-1.8-0.9-2l-0.7-0.2v-0.3h9.7
				v2.7H223l-0.2-0.9c-0.2-0.7-0.6-0.9-2.9-0.9h-1.8v5h1.8c1.8,0,2.1-0.1,2.3-0.8l0.2-0.7h0.4v4h-0.4l-0.2-0.8
				c-0.2-0.7-0.5-0.8-2.3-0.8h-1.8v3.7c0,1.9,0.2,2.1,1.1,2.1h1.2c2.1,0,2.6-0.3,3-1.1l0.4-0.9l0.4,0.1l-0.6,2.9H213.7z"/>
			<path id="Fill-13" class="st0" d="M241.3,199.8v-0.3l0.7-0.2c0.8-0.2,0.9-0.4,0.9-2v-8.3c0-1.7-0.1-1.8-0.9-2l-0.7-0.2v-0.3h6.4
				v0.3l-1.1,0.2c-0.8,0.2-1,0.4-1,2v7.9c0,1.9,0.2,2.1,1.1,2.1h1c2.1,0,2.7-0.3,3-1.1l0.5-1.3l0.5,0.1l-0.7,3.3H241.3z"/>
			<path id="Fill-15" class="st0" d="M265,190.3c-0.3-0.8-0.5-1.6-0.6-1.9h-0.1c-0.1,0.4-0.4,1.3-0.7,2l-1.4,3.8h4.1L265,190.3z
				 M266.2,199.8v-0.3l0.8-0.2c0.8-0.2,0.9-0.4,0.3-2l-0.7-2.1h-4.8l-0.5,1.5c-0.7,1.9-0.7,2.4,0.2,2.6l0.8,0.2v0.3h-4.4v-0.3
				l0.5-0.2c0.6-0.2,0.8-0.5,1.5-2.3l3-7.3c0.9-2.2,0.9-2.6,0.1-2.8l-0.8-0.2v-0.3h6.1v0.3l-0.8,0.2c-0.8,0.2-0.7,0.6,0.1,2.8
				l2.8,7.5c0.6,1.6,0.8,1.8,1.4,2.1l0.5,0.2v0.3H266.2z"/>
			<path id="Fill-17" class="st0" d="M290.7,199.8v-0.3l0.8-0.2c0.8-0.2,1-0.4,1-2v-9.9h-1.1c-2.2,0-2.7,0.4-2.9,1.1l-0.2,1.2h-0.5
				v-3.8h0.4l0.1,0.2c0.1,0.3,0.3,0.3,1.8,0.3h7.4c1.4,0,1.7,0,1.8-0.3l0.1-0.2h0.4v3.8h-0.5l-0.2-1.2c-0.2-0.8-0.6-1.1-2.9-1.1
				h-1.1v9.9c0,1.7,0.1,1.8,1,2l0.8,0.2v0.3H290.7z"/>
			<path id="Fill-19" class="st0" d="M317.5,193c0-4.6-2.1-6.3-4.2-6.3c-2,0-4.2,1.6-4.2,6.3c0,4.6,2.1,6.2,4.2,6.2
				C315.4,199.3,317.5,197.6,317.5,193 M306.3,193.1c0-4.4,3.4-7.1,7.1-7.1c3.9,0,7.1,2.2,7.1,7.1c0,4.1-3.2,7-7.1,7
				C309.1,200.1,306.3,197.7,306.3,193.1"/>
			<path id="Fill-21" class="st0" d="M329.2,194.3v-5.4c0-1.7-0.1-1.8-0.9-2l-0.7-0.2v-0.3h6v0.3l-0.7,0.2c-0.8,0.2-0.9,0.4-0.9,2
				v5.5c0,2.2,0.8,4.4,3.5,4.4c2.7,0,3.4-2.4,3.4-4.8v-2.3c0-4.4-0.2-4.6-1-4.8l-0.8-0.2v-0.3h4.8v0.3l-0.7,0.2
				c-0.8,0.2-0.9,0.5-0.9,3.9v2.7c0,3.5-1.1,6.7-5.5,6.7C330.9,200.1,329.2,197.7,329.2,194.3"/>
			<path id="Fill-23" class="st0" d="M361.2,200.2c-2.9,0-4-1.6-5.5-4c-0.7-1.2-1.7-2.6-2.2-3.3h0.5c1.7,0,3.2-0.8,3.2-2.9
				s-1.4-3-3.2-3c-0.2,0-0.5,0-0.7,0.1v10.1c0,1.7,0.1,1.8,0.9,2l0.7,0.2v0.3h-6v-0.3l0.7-0.2c0.8-0.2,0.9-0.4,0.9-2v-8.3
				c0-1.7-0.1-1.8-0.9-2l-0.7-0.2v-0.3c1.6-0.1,3.7-0.1,6.1-0.1c2.4,0,5.1,0.7,5.1,3.5c0,2-1.9,3.1-3.3,3.5c0.4,0.7,1.3,2.1,2.2,3.2
				c1.3,1.7,2.6,3.1,3.8,3.1c0.2,0,0.3,0,0.4-0.1l0.1,0.4C362.7,200.1,361.8,200.2,361.2,200.2"/>
			<path id="Fill-25" class="st0" d="M380.9,200l-7.4-9.5c-0.5-0.6-0.8-1.1-0.9-1.5h-0.1c0,0.3,0,0.9,0,1.4v4c0,4.2,0.2,4.6,1.1,4.8
				l1.1,0.2v0.3h-5.1v-0.3l0.7-0.2c0.8-0.2,0.9-0.5,0.9-3.9v-6.5c0-1.7-0.2-1.9-1-2l-1-0.2v-0.4h4.5l6.3,8.3c0.4,0.6,0.9,1.3,1,1.7
				h0.1c0-0.4,0-1.2,0-1.6v-3.1c0-4.2-0.2-4.6-1.1-4.8l-1.1-0.2v-0.3h5.1v0.3l-0.7,0.2c-0.8,0.2-0.9,0.5-0.9,3.8v9.3H380.9z"/>
			<path id="Fill-27" class="st0" d="M391.3,199.8v-0.3l0.7-0.2c0.8-0.2,0.9-0.4,0.9-2v-8.3c0-1.7-0.1-1.8-0.9-2l-0.7-0.2v-0.3h9.7
				v2.7h-0.4l-0.2-0.9c-0.2-0.7-0.6-0.9-2.9-0.9h-1.8v5h1.8c1.8,0,2.1-0.1,2.3-0.8l0.2-0.7h0.4v4H400l-0.2-0.8
				c-0.2-0.7-0.5-0.8-2.3-0.8h-1.8v3.7c0,1.9,0.2,2.1,1.1,2.1h1.2c2.1,0,2.6-0.3,3-1.1l0.4-0.9l0.4,0.1l-0.6,2.9H391.3z"/>
			<path id="Fill-29" class="st0" d="M409.3,199.8v-0.3l0.7-0.2c0.8-0.2,0.9-0.4,0.9-2v-8.3c0-1.7-0.1-1.8-0.9-2l-0.7-0.2v-0.3h6.4
				v0.3l-1.1,0.2c-0.8,0.2-1,0.4-1,2v7.9c0,1.9,0.2,2.1,1.1,2.1h1c2.1,0,2.7-0.3,3-1.1l0.5-1.3l0.5,0.1l-0.7,3.3H409.3z"/>
			<path id="Fill-31" class="st0" d="M427,199.8v-0.3l0.7-0.2c0.8-0.2,0.9-0.4,0.9-2v-8.3c0-1.7-0.1-1.8-0.9-2l-0.7-0.2v-0.3h6.4
				v0.3l-1.1,0.2c-0.8,0.2-1,0.4-1,2v7.9c0,1.9,0.2,2.1,1.1,2.1h1c2.1,0,2.7-0.3,3-1.1l0.5-1.3l0.5,0.1l-0.7,3.3H427z"/>
			<path id="Fill-33" class="st0" d="M444.6,199.8v-0.3l0.7-0.2c0.8-0.2,0.9-0.4,0.9-2v-8.3c0-1.7-0.1-1.8-0.9-2l-0.7-0.2v-0.3h9.7
				v2.7h-0.4l-0.2-0.9c-0.2-0.7-0.6-0.9-2.9-0.9h-1.8v5h1.8c1.8,0,2.1-0.1,2.3-0.8l0.2-0.7h0.4v4h-0.4l-0.2-0.8
				c-0.2-0.7-0.5-0.8-2.3-0.8h-1.8v3.7c0,1.9,0.2,2.1,1.1,2.1h1.2c2.1,0,2.6-0.3,3-1.1l0.4-0.9l0.4,0.1l-0.6,2.9H444.6z"/>
			<path id="Fill-35" class="st0" d="M240.9,236v-0.3l0.7-0.2c0.8-0.2,0.9-0.4,0.9-2v-8.3c0-1.7-0.1-1.8-0.9-2l-0.7-0.2v-0.3
				c1.4-0.1,4.1-0.1,6-0.1c2.3,0,5.3,0.5,5.3,3.8c0,3.4-3.5,4.4-6.3,4.4l0-0.8c1.8,0,3.5-1,3.5-3.4c0-2.2-1.3-3.3-3.2-3.3
				c-0.3,0-0.7,0-0.9,0.1v10.1c0,1.7,0.2,1.9,1,2l1.1,0.2v0.3H240.9z"/>
			<path id="Fill-37" class="st0" d="M264.6,226.6c-0.3-0.8-0.5-1.6-0.6-1.9h-0.1c-0.1,0.4-0.4,1.3-0.7,2l-1.4,3.8h4.1L264.6,226.6z
				 M265.8,236v-0.3l0.8-0.2c0.8-0.2,0.9-0.4,0.3-2l-0.7-2.1h-4.8l-0.5,1.5c-0.7,1.9-0.7,2.4,0.2,2.6l0.8,0.2v0.3h-4.4v-0.3l0.5-0.2
				c0.6-0.2,0.8-0.5,1.5-2.3l3-7.3c0.9-2.2,0.9-2.6,0.1-2.8l-0.8-0.2v-0.3h6.1v0.3l-0.8,0.2c-0.8,0.2-0.7,0.6,0.1,2.8l2.8,7.5
				c0.6,1.6,0.8,1.8,1.4,2.1l0.5,0.2v0.3H265.8z"/>
			<g id="Group-41" transform="translate(277.680525, 221.632080)">
				<g id="Clip-40">
				</g>
				<defs>
					<filter id="Adobe_OpacityMaskFilter" filterUnits="userSpaceOnUse" x="0.7" y="0.8" width="14.5" height="14">
						<feColorMatrix  type="matrix" values="1 0 0 0 0  0 1 0 0 0  0 0 1 0 0  0 0 0 1 0"/>
					</filter>
				</defs>
				<mask maskUnits="userSpaceOnUse" x="0.7" y="0.8" width="14.5" height="14" id="mask-2">
					<g class="st1">
						<polygon id="path-1" class="st2" points="15.2,14.8 0.7,14.8 0.7,0.8 15.2,0.8 						"/>
					</g>
				</mask>
				<path id="Fill-39" class="st3" d="M13.1,14.8c-2.9,0-4-1.6-5.5-4C6.9,9.7,5.9,8.3,5.4,7.5h0.5C7.6,7.5,9,6.7,9,4.6
					c0-2.1-1.4-3-3.2-3c-0.2,0-0.5,0-0.7,0.1v10.1c0,1.7,0.1,1.8,0.9,2l0.7,0.2v0.3h-6v-0.3l0.7-0.2c0.8-0.2,0.9-0.4,0.9-2V3.5
					c0-1.7-0.1-1.8-0.9-2L0.7,1.3V1c1.6-0.1,3.7-0.1,6.1-0.1c2.4,0,5.1,0.7,5.1,3.5c0,2-1.9,3.1-3.3,3.5C9,8.5,9.9,9.8,10.8,11
					c1.3,1.7,2.6,3.1,3.8,3.1c0.2,0,0.3,0,0.4-0.1l0.1,0.4C14.6,14.7,13.7,14.8,13.1,14.8"/>
			</g>
			<path id="Fill-42" class="st0" d="M299.1,236v-0.3l0.7-0.2c0.8-0.2,0.9-0.4,0.9-2v-8.3c0-1.7-0.1-1.8-0.9-2l-0.7-0.2v-0.3h6v0.3
				l-0.7,0.2c-0.8,0.2-0.9,0.4-0.9,2v8.3c0,1.7,0.1,1.8,0.9,2l0.7,0.2v0.3H299.1z"/>
			<path id="Fill-44" class="st0" d="M316.7,236.4c-1.1,0-2.3-0.3-3.2-0.6l-0.6-3l0.4-0.1l0.5,1.1c0.4,0.8,1.2,1.7,2.9,1.7
				c1.4,0,2.8-0.8,2.8-2.4c0-1.3-1.1-2.1-2.2-2.6l-1.2-0.6c-1.4-0.7-2.8-1.7-2.8-3.6c0-2.6,2.2-4,4.5-4c0.4,0,1,0,1.6,0.2
				c0.8,0.1,1,0.2,1.1-0.1l0.1-0.2h0.4v3.8h-0.4l-0.3-1.2c-0.2-0.7-0.9-1.5-2.6-1.5c-1.2,0-2.3,0.7-2.3,2c0,1.2,1.2,1.9,2.3,2.4
				l1.2,0.6c1.4,0.7,2.8,1.8,2.8,3.7C321.8,234.9,319.3,236.4,316.7,236.4"/>
			<path id="Fill-46" class="st0" d="M233.7,42.9l1.3-0.2c0.8-0.1,1-0.4,1-2v-5.3c0-1.6-0.2-1.8-1-2l-1.3-0.2v-0.3h6.9v0.3l-1.3,0.2
				c-0.8,0.1-1,0.3-1,2v5.3c0,1.6,0.2,1.8,1,2l1.3,0.2v0.3h-6.9V42.9z"/>
			<path id="Fill-48" class="st0" d="M247,46.2c-0.3,0-0.7,0-1.1,0l0-0.7c0.3,0,0.6,0,0.9,0c2.1,0,4.5-0.9,4.5-3.3
				c0-2.4-2.6-3.4-4.9-3.6l0.9-5.8h3.1c1.7,0,2.1-0.1,2.2-0.5l0.2-0.4l0.4,0.1l-0.5,2.6h-4.6l-0.4,2.3c2.9,0.3,5.7,1.8,5.7,4.6
				C253.5,44.6,250.2,46.2,247,46.2"/>
			<path id="Fill-50" class="st0" d="M315.4,32.6c0-1.3-0.8-2.1-1.9-2.1c-1.1,0-1.7,0.9-1.7,1.9c0,1.5,1.1,2.2,2.1,2.9
				C314.6,34.8,315.4,34,315.4,32.6 M315.4,40.3c0-1.8-1.7-2.7-2.9-3.6c-0.9,0.7-1.7,1.6-1.7,3.3c0,1.6,0.9,2.8,2.3,2.8
				C314.4,42.8,315.4,41.8,315.4,40.3 M309,40c0-2,1.6-3,2.9-3.7c-1.5-1-2.2-2-2.2-3.2c0-2.1,1.9-3.3,3.9-3.3c1.8,0,3.5,1,3.5,2.8
				c0,1.6-1.4,2.4-2.6,3.1c1.4,0.9,3.1,1.9,3.1,3.9c0,2.4-2.2,3.9-4.5,3.9C310.9,43.6,309,42.4,309,40"/>
			<path id="Fill-52" class="st0" d="M323.2,43.3v-1.1c0.9-0.5,2.1-1.3,3-2c1.2-0.9,2.6-2.2,2.6-3.7c0-1.4-1.3-2.3-2.6-2.3
				c-1.1,0-2,0.4-2.7,1.1l-0.4-0.4c1.2-1.5,2.6-2.3,4.4-2.3c1.9,0,3.8,1.3,3.8,3.2c0,1.7-1.6,3.2-3,4.1c-1,0.6-2.2,1.5-2.9,1.9h3.7
				c2,0,2.6-0.3,3-1.1l0.3-0.6l0.4,0.1l-0.7,3.2H323.2z"/>
			<g id="Group-56" transform="translate(251.763676, 0.707206)">
				<g id="Clip-55">
				</g>
				<defs>
					<filter id="Adobe_OpacityMaskFilter_1_" filterUnits="userSpaceOnUse" x="0.3" y="0.5" width="58.7" height="78">
						<feColorMatrix  type="matrix" values="1 0 0 0 0  0 1 0 0 0  0 0 1 0 0  0 0 0 1 0"/>
					</filter>
				</defs>
				<mask maskUnits="userSpaceOnUse" x="0.3" y="0.5" width="58.7" height="78" id="mask-4">
					<g class="st4">
						<polygon id="path-3" class="st2" points="59.1,0.5 0.3,0.5 0.3,78.5 59.1,78.5 						"/>
					</g>
				</mask>
				<path id="Fill-54" class="st5" d="M32,57.1C32,57.1,32,57.1,32,57.1c0,0,0.2-1.6,0.2-1.6c3.6,1.1,6.2,4.4,6.2,8.3v12.5
					c0,0-0.9,0.1-1.3,0.2V64.1C37,60.8,34.9,58.1,32,57.1L32,57.1z M26.9,53.5c0,0,0.2,1.3,0.2,1.3c-3.5,1-6.1,3.9-6.7,7.6
					c-2.7-0.6-6.3-1.4-10.7-3.4l0.3-1.8c1.4,0.5,3.1,1.1,5.2,1.6l0.1-0.7c-2.1-0.6-3.8-1.1-5.2-1.6c0.1-0.4,0.2-1.3,0.3-2
					c2,0.6,4.6,1.3,7.7,1.9l0.1-0.7c-3.1-0.6-5.8-1.3-7.7-1.9l4.2-28.5c1.5-0.6,3.1-1.1,4.7-1.5L19.3,23c-1.5,0.4-3,0.8-4.4,1.4
					l0.4-2.4c2.2-0.7,4.5-1.3,6.8-1.7h0v0l-0.1-0.7c-2.2,0.4-4.4,0.9-6.5,1.6c0,0,0.3-1.9,0.3-1.9L15,17.2c0.7-0.2,1.5-0.4,2.2-0.6
					l0.6,1.9c0.6-0.2,1.3-0.3,2.1-0.5l-0.4-1.9c0.7-0.1,1.5-0.3,2.2-0.4l0.4,1.9c0.7-0.1,1.4-0.2,2.1-0.2l-0.2-2
					c0.8-0.1,1.5-0.1,2.3-0.2l0.2,2c0.7,0,1.4-0.1,2.1-0.1v-2c0.4,0,1.1,0,1.1,0c0.4,0,0.8,0,1.1,0v2c0.7,0,1.4,0,2.1,0.1l0.2-2
					c0.8,0,1.5,0.1,2.3,0.2l-0.2,2c0.7,0.1,1.4,0.2,2.1,0.2l0.4-1.9c0.8,0.1,1.5,0.2,2.2,0.4L39.6,18c0.7,0.1,1.4,0.3,2.1,0.5
					l0.6-1.9c0.8,0.2,1.5,0.4,2.2,0.6l-0.6,2.1c0,0,0.3,1.9,0.3,1.9c-2.1-0.7-4.3-1.2-6.5-1.6l-0.1,0.7v0h0c2.3,0.4,4.6,1,6.8,1.7
					l0.4,2.4c-1.4-0.5-2.9-1-4.4-1.4L40,23.7c1.6,0.4,3.2,0.9,4.7,1.5l4.2,28.5c-1.9,0.6-4.6,1.3-7.7,1.9l0.1,0.7
					c3.1-0.6,5.8-1.3,7.7-1.9c0.1,0.7,0.2,1.5,0.3,2c-1.3,0.5-3.1,1.1-5.2,1.6l0.1,0.7c2-0.5,3.8-1.1,5.2-1.6l0.3,1.8
					c-4.3,2-8,2.8-10.7,3.4c-0.6-3.7-3.2-6.6-6.7-7.6c0,0,0.2-1.3,0.2-1.3H26.9z M31,59.1h-2.6l-0.7-4.9h3.9L31,59.1z M27.4,57.1
					c-2.9,1-5,3.7-5,7v12.5c-0.4-0.1-1.3-0.2-1.3-0.2V63.8c0-3.9,2.6-7.2,6.2-8.3C27.2,55.5,27.4,57.1,27.4,57.1
					C27.4,57.1,27.4,57.1,27.4,57.1L27.4,57.1z M3,70.9l1.1-1.8c3.7,1.8,7.7,3.1,11.7,4.1l0.2-0.7c-3.9-0.9-7.8-2.3-11.5-4l1.2-2
					c1.9,0.9,3.8,1.6,5.8,2.3l0.2-0.7c-1.9-0.6-3.8-1.4-5.6-2.2l1.1-1.8c2.7,1.2,5.5,2.2,8.3,3l0.2-0.7c-2.8-0.7-5.5-1.7-8.1-2.9
					l1.2-1.9c3.6,1.6,7.5,2.8,11.5,3.6c0,0.3,0,11.2,0,11.2C14.3,75.3,8.5,73.5,3,70.9L3,70.9z M13.5,15.1c-0.3-0.5-0.6-1-0.9-1.5
					c2.3-0.8,4.6-1.4,7-1.8L19.6,11c-2.4,0.5-4.9,1.1-7.2,1.9c0,0-0.6-1.1-0.9-1.6c0.7-0.2,1.3-0.4,2-0.6L13.2,10
					c-0.7,0.2-1.4,0.4-2.1,0.7c0,0-1.2-2.3-2.3-4.7c1.7-0.6,3.5-1.1,5.2-1.6l1.1,4.8c0,0,2.9-0.8,5.7-1.2c-0.2-0.9-0.9-4.8-0.9-4.8
					c2.2-0.4,4.5-0.6,6.8-0.7l0.1,4.9c0,0,1.7-0.1,2.9-0.1c1.1,0,2.9,0.1,2.9,0.1l0.1-4.9c2.3,0.1,4.5,0.3,6.8,0.7
					c0,0-0.7,3.9-0.9,4.8c2.7,0.4,5.7,1.2,5.7,1.2l1.1-4.8c1.8,0.5,3.5,1,5.2,1.6c-1.1,2.4-2.3,4.7-2.3,4.7
					c-0.7-0.2-1.4-0.5-2.1-0.7L46,10.7c0.7,0.2,1.3,0.4,2,0.6c-0.3,0.5-0.9,1.6-0.9,1.6c-2.4-0.8-4.8-1.4-7.2-1.9l-0.1,0.7
					c2.4,0.4,4.7,1.1,7,1.8c-0.3,0.5-0.6,1-0.9,1.5c-4.7-1.5-10.1-2.3-15.7-2.4c0,0-0.8,0-0.8,0C23.6,12.7,18.3,13.6,13.5,15.1
					L13.5,15.1z M51.8,63.4c-2.6,1.2-5.3,2.1-8.1,2.9l0.2,0.7c2.8-0.8,5.6-1.8,8.3-3l1.1,1.8c-1.8,0.8-3.7,1.6-5.6,2.2l0.2,0.7
					c2-0.7,3.9-1.4,5.8-2.3l1.2,2c-3.7,1.7-7.5,3.1-11.5,4l0.2,0.7c4-0.9,8-2.3,11.7-4.1l1.1,1.8c-5.5,2.6-11.3,4.4-17.3,5.3
					c0,0,0-10.9,0-11.2c4-0.7,7.8-1.9,11.5-3.6L51.8,63.4z M59.1,71.6l-7.5-12l-6-40.6c0.3-0.4,0.5-0.8,0.8-1.2
					c0.4-0.7,0.9-1.4,1.3-2.1c3.3-5.7,5.5-10.7,5.5-10.7s-4.2-1.7-9-2.8c-0.1,0.5-1.2,5-1.2,5c-0.8-0.2-1.5-0.3-2.3-0.5l0.9-5.1
					c0,0-4.8-1-10.6-1.1c0,1.1-0.1,5.2-0.1,5.2c-0.2,0-1.2,0-1.2,0s-1,0-1.2,0c0,0-0.1-4.1-0.1-5.2c-5.7,0.1-10.6,1.1-10.6,1.1
					l1,5.1C18,6.9,17.3,7,16.5,7.2c0,0-1.1-4.5-1.2-5c-4.8,1.1-9,2.8-9,2.8s2.2,5.1,5.5,10.7c0.4,0.7,0.8,1.4,1.3,2.1
					c0.3,0.4,0.5,0.8,0.8,1.2l-6,40.6l-7.5,12c0,0,10.3,5.8,23.9,6.9V64.1c0-2.3,1.4-4.3,3.5-5.1c0,0,0.1,0.9,0.1,0.9h3.9
					c0,0,0.1-0.9,0.1-0.9c2,0.8,3.5,2.8,3.5,5.1v14.5C48.7,77.5,59.1,71.6,59.1,71.6L59.1,71.6z"/>
			</g>
			<path id="Fill-57" class="st0" d="M281.9,35.8c0-0.4,0-3.4,0-3.8c0.9,0,2.7,0.1,4,0.1c0,0.2,0.1,3.1,0.2,3.8H281.9z M281.9,27.4
				c1.2,0,2.4,0,3.9,0.2c0,0,0.2,3.6,0.2,3.8c-1.4,0-3.1-0.1-4-0.1C281.9,30.3,281.9,27.5,281.9,27.4L281.9,27.4z M281.8,21.6
				L281.8,21.6c3.5,3.2,3.8,5,3.8,5.3c-0.9-0.1-2.6-0.1-3.8-0.1C281.9,25.1,281.8,23.6,281.8,21.6L281.8,21.6z M281.1,26.7
				c-1.2,0-2.9,0.1-3.8,0.1c0-0.3,0.4-2.1,3.8-5.3l0,0C281.1,23.6,281.1,25.1,281.1,26.7L281.1,26.7z M281.1,31.3
				c-0.9,0-2.6,0.1-4,0.1c0-0.2,0.2-3.8,0.2-3.8c1.5-0.1,2.7-0.1,3.9-0.2C281.1,27.5,281.1,30.3,281.1,31.3L281.1,31.3z M281,35.8
				h-4.2c0-0.6,0.2-3.6,0.2-3.8c1.4,0,3.1-0.1,4-0.1C281.1,32.4,281.1,35.4,281,35.8L281,35.8z M289.8,35.8H288c0,0-0.3-5.1-0.5-7.6
				c0.6,0.1,1.1,0.1,1.7,0.2c0-0.2-0.1-1.4-0.1-1.8c-0.6-0.1-1.1-0.1-1.7-0.2c-1-3.7-5.9-7.5-5.9-7.5s-4.9,3.8-5.9,7.5
				c-0.6,0.1-1.2,0.1-1.7,0.2c0,0.4-0.1,1.6-0.1,1.8c0.6-0.1,1.1-0.1,1.7-0.2c-0.2,2.5-0.5,7.6-0.5,7.6h-1.8c0,0-0.1,1.2-0.1,1.8
				c0.6,0,7.4,0,7.4,0s0,0.6,0,1.1c0.1,0,2,0,2.1,0c0-0.6,0-1.1,0-1.1s6.8,0,7.4,0C289.9,37.1,289.8,35.8,289.8,35.8L289.8,35.8z"/>
			<path id="Fill-59" class="st0" d="M289.9,41.9c0.1,1.8,0.2,3.4,0.3,4.9c-0.8,0.1-1.6,0.2-2.6,0.3c0,0,0-0.2,0-0.3
				C287.5,43.8,289.9,41.9,289.9,41.9 M290.5,51.4L290.5,51.4c-0.9,0.1-1.8,0.2-2.7,0.3c-0.1-1.3-0.1-2.6-0.2-3.9
				c1-0.1,1.8-0.2,2.6-0.3C290.4,48.8,290.4,50.1,290.5,51.4 M293.5,45.9c0,0.1,0,0.3,0,0.3c-0.9,0.2-1.7,0.3-2.5,0.4
				c-0.1-1.5-0.2-3-0.3-4.8C291.6,42.4,293.3,43.6,293.5,45.9 M293.9,50.9c-0.9,0.2-1.7,0.3-2.6,0.4c-0.1-1.3-0.2-2.6-0.3-3.9
				c0.8-0.1,1.6-0.2,2.5-0.4C293.7,48.3,293.8,49.6,293.9,50.9 M285.8,46.8c0.1,2.3,0.1,4.6,0.2,6.9c3.3-0.2,6.7-0.7,10-1.3
				c-0.2-2.3-0.5-4.5-0.7-6.8c-0.5-4.4-4.7-5.9-5.2-6.1C289.7,39.7,285.7,42.4,285.8,46.8"/>
			<path id="Fill-61" class="st0" d="M275.3,46.7c0,0.1,0,0.3,0,0.3c-1-0.1-1.8-0.2-2.6-0.3c0.1-1.5,0.2-3,0.3-4.9
				C273,41.9,275.4,43.8,275.3,46.7 M275.1,51.7c-0.9-0.1-1.8-0.2-2.6-0.3l0,0c0.1-1.3,0.2-2.6,0.2-3.9c0.8,0.1,1.6,0.2,2.6,0.3
				C275.2,49.1,275.1,50.4,275.1,51.7 M272,46.6c-0.8-0.1-1.6-0.2-2.5-0.4c0,0,0-0.3,0-0.3c0.2-2.3,1.8-3.5,2.8-4.1
				C272.2,43.6,272.1,45.1,272,46.6 M271.7,51.3c-0.9-0.1-1.7-0.3-2.6-0.4c0.1-1.3,0.2-2.6,0.3-3.9c0.9,0.2,1.7,0.3,2.5,0.4
				C271.8,48.7,271.8,50,271.7,51.3 M272.8,39.5c-0.5,0.2-4.7,1.6-5.2,6.1c-0.2,2.3-0.5,4.5-0.7,6.8c3.3,0.7,6.6,1.1,10,1.3
				c0.1-2.3,0.1-4.6,0.2-6.9C277.2,42.4,273.3,39.7,272.8,39.5"/>
			<polygon id="Fill-63" class="st0" points="1,106.1 36.3,106.1 37.3,122.4 36.8,122.4 31.5,107.7 22.7,107.2 22.7,154.7 
				28.2,155.6 28.2,156.2 9.2,156.2 9.2,155.6 14.8,154.7 14.8,107.2 5.9,107.7 0.6,122.4 0,122.4 			"/>
			<path id="Fill-65" class="st0" d="M80,131.2c0-14.8-3.1-25.4-12.3-25.4c-8.5,0-12.1,10.2-12.1,25.2c0,14.8,3,25.4,12.3,25.4
				C76.4,156.5,80,146.2,80,131.2 M88.4,131.2c0,15-8.2,26.3-20.4,26.3c-12.7,0-20.9-11.1-20.9-26.5c0-15,8.6-26.3,20.7-26.3
				C80.2,104.8,88.4,115.6,88.4,131.2"/>
			<path id="Fill-67" class="st0" d="M104.8,135.2l0.5-27.7l-5.5-0.9v-0.6h19.1v0.6l-5.6,0.9l-0.6,28.2c-0.3,12.5,4,19.3,11.7,19.3
				c7.3,0,12.3-6.5,12-19.4l-0.8-28.1l-8.7-0.8v-0.7h16.2v0.7l-5.5,0.8l0.4,28.2c0.1,14.1-5.2,21.7-15.5,21.7
				C111.5,157.5,104.5,149.8,104.8,135.2"/>
			<path id="Fill-69" class="st0" d="M180,119.7c0-5.8-2.4-12-9.9-12.3l-4.7-0.2v24l4.7-0.1C177.7,130.8,180,125.7,180,119.7
				L180,119.7z M151.9,156.2v-0.6l5.5-0.9v-47.1l-5.5-0.9v-0.6H169c12.9,0,19.2,5.6,19.2,13.4c0,6.7-4.1,11.6-14.5,12.4v0.1l7.7,4.6
				l7,11.4c2.7,4.5,4.3,7,8.2,7.6v0.6c-9.5,1.5-13.2-1.3-16.5-7.8l-8.2-16l-6.5-0.2v22.5l5.6,0.9v0.6H151.9z"/>
			<path id="Fill-71" class="st0" d="M223.5,115l-2.7-0.1V146l2.8-0.1c6.4-0.4,9.5-6.8,9.5-15.5C233.2,121.8,230.1,115.4,223.5,115
				 M223.4,147.1h-13.4v-0.8l4.4-0.6v-30.6l-4.4-0.6v-0.8h13.2c9.7,0,16.9,5.9,16.9,16.7C240.1,141.1,232.9,147.1,223.4,147.1"/>
			<path id="Fill-73" class="st0" d="M244.9,129.5c3.3-4.6,5.4-9.8,5.4-14.3l-4.1-0.6v-0.7h10.1c-1.4,6.4-5.1,11.2-10.7,16.1
				L244.9,129.5z"/>
			<path id="Fill-75" class="st0" d="M286.6,135.4l-7.2-21.4l-7.4,21.3l7.5,5.4L286.6,135.4z M259.9,156.2v-0.6l3.5-0.9l19-51.7h1
				l18.1,51.7l3.5,0.9v0.6h-17.3v-0.6l5.5-0.9l-6-18.1l-7.5,6.6l-7.8-6.8l-6.4,18.3l8,0.9v0.6H259.9z"/>
			<path id="Fill-77" class="st0" d="M341.6,119.7c0-5.8-2.4-12-9.9-12.3l-4.7-0.2v24l4.7-0.1C339.3,130.8,341.6,125.7,341.6,119.7
				L341.6,119.7z M313.5,156.2v-0.6l5.5-0.9v-47.1l-5.5-0.9v-0.6h17.1c12.9,0,19.2,5.6,19.2,13.4c0,6.7-4.1,11.6-14.5,12.4v0.1
				l7.7,4.6l7,11.4c2.7,4.5,4.3,7,8.2,7.6v0.6c-9.5,1.5-13.2-1.3-16.5-7.8l-8.2-16l-6.5-0.2v22.5l5.6,0.9v0.6H313.5z"/>
			<path id="Fill-79" class="st0" d="M404.7,157.5h-0.6l-4.6-2.3c-3.2,1.4-7.1,2.3-10.9,2.3c-15,0-22.2-12.1-22.2-26.5
				c0-15,8.2-26.3,23-26.3c3.9,0,7.7,1,10.5,2.4l3.4-3.3l1.2,16.6h-0.5l-5.5-11.8c-2.4-1.7-5.6-2.7-9.3-2.7
				c-10.2,0-14.1,10.6-14.1,25.1c0,13.1,4.2,25.2,14.4,25.2c2.5,0,5.1-0.6,7.2-1.5v-19.5l-7.4-0.9v-0.6h20v0.6l-4.6,0.9V157.5z"/>
			<polygon id="Fill-81" class="st0" points="456,156.2 421.1,156.2 421.1,155.6 426.6,154.7 426.6,107.6 421.1,106.7 421.1,106.1 
				455,106.1 455.9,120.4 455.5,120.4 450.1,107.8 434.6,107.2 434.6,130.1 447.2,129.8 450.2,122.8 450.7,122.8 450.7,138.7 
				450.3,138.7 447.2,131.3 434.6,131.2 434.6,155.1 451.3,154.5 457.2,139.5 457.7,139.5 			"/>
			<polygon id="Fill-83" class="st0" points="488,156.2 470.9,156.2 470.9,155.6 476.5,154.7 476.5,108.3 470.9,106.7 470.9,106.1 
				484.5,106.1 509.5,148.4 508.8,107.6 499.4,106.7 499.4,106.1 516.3,106.1 516.3,106.7 510.7,107.6 510.7,150.3 513.8,155.6 
				513.8,156.2 505.3,156.2 477.8,110.3 478.4,154.7 488,155.6 			"/>
			<g id="Group-87" transform="translate(525.536856, 105.615666)">
				<g id="Clip-86">
				</g>
				<defs>
					<filter id="Adobe_OpacityMaskFilter_2_" filterUnits="userSpaceOnUse" x="0.1" y="0.5" width="37.3" height="50.1">
						<feColorMatrix  type="matrix" values="1 0 0 0 0  0 1 0 0 0  0 0 1 0 0  0 0 0 1 0"/>
					</filter>
				</defs>
				<mask maskUnits="userSpaceOnUse" x="0.1" y="0.5" width="37.3" height="50.1" id="mask-6">
					<g class="st6">
						<polygon id="path-5" class="st2" points="37.4,50.6 37.4,0.5 0.1,0.5 0.1,50.6 						"/>
					</g>
				</mask>
				<polygon id="Fill-85" class="st7" points="1.1,0.5 36.4,0.5 37.4,16.8 36.9,16.8 31.6,2.1 22.8,1.6 22.8,49.1 28.4,50 
					28.4,50.6 9.3,50.6 9.3,50 14.9,49.1 14.9,1.6 6.1,2.1 0.7,16.8 0.1,16.8 				"/>
			</g>
		</g>
	</g>
</g>
</svg>
