<?xml version="1.0" encoding="utf-8"?>
<!-- Generator: Adobe Illustrator 21.1.0, SVG Export Plug-In . SVG Version: 6.00 Build 0)  -->
<svg version="1.1" id="Calque_1" xmlns="http://www.w3.org/2000/svg" xmlns:xlink="http://www.w3.org/1999/xlink" x="0px" y="0px"
	 viewBox="0 0 780.3 797" style="enable-background:new 0 0 780.3 797;" xml:space="preserve">
<style type="text/css">
	.st0{fill:#FFC424;}
</style>
<path class="st0" d="M562,797H0v-16.5l52-14.2c48.4-13,55.5-20.1,55.5-121.6V152.3c0-101.5-7.1-108.6-55.5-121.6L0,16.5V0h359v16.5
	l-69.7,14.2c-49.6,9.5-61.4,20.1-61.4,121.6V627c0,111,16.5,121.6,64.9,121.6h74.4c121.6,0,160.6-16.5,179.5-67.3l28.3-78l24.8,4.7
	L562,797z"/>
<path class="st0" d="M277.2,584.6v-4.2l13.3-3.6c12.4-3.3,14.2-5.1,14.2-31.1V419.5c0-26-1.8-27.8-14.2-31.1l-13.3-3.6v-4.2h85.9
	v4.2l-13.3,3.6c-12.4,3.3-14.2,5.1-14.2,31.1v126.1c0,26,1.8,27.8,14.2,31.1l13.3,3.6v4.2h-85.9V584.6z"/>
<path class="st0" d="M531.2,584.6H384.3v-4.2l13.3-3.6c12.4-3.3,14.2-5.1,14.2-31.1V419.5c0-26-1.8-27.8-14.2-31.1l-13.3-3.6v-4.2
	H527v40.2h-4.8l-3.6-13.6c-3-11.2-9.7-14.2-43.5-14.2h-32.4v77.7h32c27.8,0,32-0.9,35.1-11.5l3.4-11.1h4.5v59.3h-4.5l-3.6-12.7
	c-3-10.6-7-11.5-34.8-11.5h-32v58c0,28.4,4.2,31.1,16.6,31.1h23.3c31.1,0,39.9-4.8,46-17.2l6.7-13.9l5.1,1.2L531.2,584.6z"/>
<path class="st0" d="M378,339.6H277.2v-2.9l9.1-2.5c8.5-2.3,9.8-3.5,9.8-21.4v-86.5c0-17.8-1.2-19.1-9.8-21.4l-9.1-2.5v-2.9h97.9
	v27.6h-3.3l-2.5-9.3c-2.1-7.7-6.6-9.8-29.9-9.8h-22.2v53.3h22c19.1,0,22-0.6,24.1-7.9l2.3-7.7h3.1v40.7h-3.1l-2.5-8.7
	c-2.1-7.3-4.8-7.9-23.9-7.9h-22v39.8c0,19.5,2.9,21.4,11.4,21.4h16c21.4,0,27.4-3.3,31.5-11.8l4.6-9.5l3.5,0.8L378,339.6z"/>
<path class="st0" d="M767,388.4c-11.8,3.3-13.9,9.4-13.9,58v41.7c0,52.9-16.3,101.3-82.5,101.3c-54.7,0-81.6-36-81.6-88v-81.9
	c0-26-1.8-27.8-14.2-31.1l-13.3-3.6v-4.2h85.9v4.2l-13.3,3.6c-12.4,3.3-14.2,5.1-14.2,31.1v74.7c0,37.5,12.4,78.9,59,78.9
	c49.9,0,57.8-46,57.8-86.2v-25.1c0-64.7-2.7-69.5-15.7-73.2l-14.8-3.9v-4.2h74.4v4.2L767,388.4z"/>
</svg>
