<svg xmlns="http://www.w3.org/2000/svg" viewBox="0 0 550.49 468.59"><defs><style>.cls-1{fill:#fff;}</style></defs><title>carte_1</title><g id="Calque_2" data-name="Calque 2"><g id="Calque_1-2" data-name="Calque 1"><path class="cls-1" d="M157.78,76.84H105V75.29L109.88,74c4.55-1.22,5.21-1.88,5.21-11.42V16.3c0-9.54-.67-10.2-5.21-11.42L105,3.55V2h33.71V3.55l-6.54,1.33c-4.66.89-5.77,1.89-5.77,11.42V60.87c0,10.42,1.55,11.42,6.1,11.42h7c11.42,0,15.08-1.55,16.85-6.32L159,58.65l2.33.44Z"/><path class="cls-1" d="M213.33,76.84V75.29L218.21,74c4.55-1.22,5.65-2.55,2.33-11.42l-4.66-12.64H188.27l-2.88,7.32c-5.32,13.53-4.44,15.3.55,16.74l4.66,1.33v1.55H164.88V75.29l3.1-1.11c4.32-1.55,5.21-2.77,10-14.08L203.13,0h5.43l24.17,62.53c3.55,9.2,4.66,10.09,9,11.64l3.1,1.11v1.55ZM205.9,22.62s-2.77-7.76-3.1-9.54h-.22c-.33,1.55-3.44,9.54-3.44,9.54l-9,22.62h24.06Z"/><path class="cls-1" d="M142.81,358.76V356l8.52-2.32c7.94-2.13,9.87-4.45,4.06-19.94l-8.13-22.07H99.06L94,324.5c-9.29,23.62-7.74,26.71,1,29.23l8.13,2.32v2.71H58.22V356l5.42-1.93c7.55-2.71,9.1-4.84,17.42-24.58L125,224.61h9.48l42.2,109.17c6.19,16.07,8.13,17.61,15.68,20.33l5.42,1.93v2.71Zm-13-94.66s-4.84-13.55-5.42-16.65H124c-.58,2.71-6,16.65-6,16.65l-15.68,39.49h42Z"/><path class="cls-1" d="M298.84,359c-12.2-15.68-41.42-51.49-53.43-67.94h6c16.45,0,32.52-6.39,32.52-27.49,0-23-13.74-28.65-33.1-28.65h-8.9v98.91c0,16.65,1.16,17.81,9.1,19.94l8.52,2.32v2.71h-55V356l8.52-2.32c7.94-2.13,9.1-3.29,9.1-19.94V253.07c0-16.65-1.16-17.81-9.1-19.94l-8.52-2.32V228.1H258c22.26,0,47.43,4.07,47.43,31.94,0,19-17,29.62-34.65,33.68,10.26,12.78,22.65,28.46,32.71,40.07,11,12.78,16.07,18.39,21.29,20.13l6.39,2.13v2.71Z"/><path class="cls-1" d="M438.8,258.68l-2.32-11.61c-1.55-7.36-6.19-11-27.88-11H394.85v97.75c0,16.65,1.16,18.2,9.1,19.94L414.41,356v2.71H355.56V356L366,353.72c7.94-1.74,9.1-3.29,9.1-19.94V236H361.37c-21.68,0-26.33,3.68-27.87,11l-2.32,11.61h-3.29V228.1H442.09v30.58Z"/><path class="cls-1" d="M544.69,358.76H450.61V356l8.52-2.32c7.94-2.13,9.1-3.29,9.1-19.94V253.07c0-16.65-1.16-17.81-9.1-19.94l-8.52-2.32V228.1H542v25.74h-3.1l-2.32-8.71c-1.94-7.16-6.19-9.1-27.87-9.1H488v49.75h20.52c17.81,0,20.52-.58,22.45-7.36l2.13-7.16H536V309.2h-2.9l-2.32-8.13c-1.94-6.77-4.45-7.36-22.26-7.36H488v37.17c0,18.2,2.71,19.94,10.65,19.94h14.91c19.94,0,25.55-3.1,29.42-11l4.26-8.9,3.29.77Z"/><path class="cls-1" d="M250.76,377.29l-11.93,26.45c-13.49,30.09-51.87,43.57-85.59,43.57-93.89,0-142.13-76.25-142.13-171.17,0-79.88,37.35-153,126-153,33.72,0,80.92,12.55,88.18,44.71L232.09,197H241v-79c-26-9.34-60.72-16.6-104.82-16.6C80,101.34,32.75,119.9,0,153.38V416c32.75,34,83.18,52.62,141.07,52.62,44.09,0,86.49-10.89,104.12-17.64l15-71.06Z"/></g></g></svg>