<svg xmlns="http://www.w3.org/2000/svg" viewBox="0 0 465.3 369.8"><defs><style>.cls-1{fill:#fff;}</style></defs><title>chef_1</title><g id="Calque_2" data-name="Calque 2"><g id="Calque_1-2" data-name="Calque 1"><path class="cls-1" d="M317.92,96.53H261.64V94.88l5.2-1.42c4.85-1.3,5.56-2,5.56-12.18V32c0-10.17-.71-10.88-5.56-12.18l-5.2-1.42V16.73h35.94v1.66l-7,1.42c-5,.95-6.15,2-6.15,12.18V79.51c0,11.11,1.66,12.18,6.5,12.18h7.45c12.18,0,16.08-1.66,18-6.74l2.84-7.8,2.48.47Z"/><path class="cls-1" d="M386.61,96.53H329.15V94.88l5.2-1.42c4.85-1.3,5.56-2,5.56-12.18V32c0-10.17-.71-10.88-5.56-12.18l-5.2-1.42V16.73H385V32.45h-1.89l-1.42-5.32c-1.18-4.37-3.78-5.56-17-5.56H352V52H364.5c10.88,0,12.53-.35,13.71-4.49l1.3-4.37h1.77V66.27h-1.77l-1.42-5c-1.18-4.14-2.72-4.49-13.6-4.49H352v22.7c0,11.11,1.66,12.18,6.5,12.18h9.1c12.18,0,15.61-1.89,18-6.74l2.6-5.44,2,.47Z"/><path class="cls-1" d="M186,263.64v-2.73l8.59-2.34c8-2.15,9.17-3.32,9.17-20.1V197.87H134.53v40.59c0,16.78,1.17,18,9.17,20.1l8.59,2.34v2.73H96.87v-2.73l8.59-2.34c8-2.15,9.17-3.32,9.17-20.1V157.09c0-16.78-1.17-18-9.17-20.1l-8.59-2.34v-2.73h55.42v2.73L143.7,137c-8,2.15-9.17,3.32-9.17,20.1v32.39H203.8V157.09c0-16.78-1.17-18-9.17-20.1L186,134.65v-2.73h55.42v2.73L232.88,137c-8,2.15-9.17,3.32-9.17,20.1v81.38c0,16.78,1.17,18,9.17,20.1l8.59,2.34v2.73Z"/><path class="cls-1" d="M349.19,263.64H254.35v-2.73l8.59-2.34c8-2.15,9.17-3.32,9.17-20.1V157.09c0-16.78-1.17-18-9.17-20.1l-8.59-2.34v-2.73h92.11v26h-3.12L341,149.09c-2-7.22-6.24-9.17-28.1-9.17H292v50.15H312.7c18,0,20.69-.59,22.64-7.42l2.15-7.22h2.93v38.25h-2.93l-2.34-8.2c-2-6.83-4.49-7.42-22.44-7.42H292v37.47c0,18.34,2.73,20.1,10.73,20.1h15c20.1,0,25.76-3.12,29.66-11.12l4.29-9,3.32.78Z"/><path class="cls-1" d="M462.18,159.82l-2.34-10.73c-1.56-7.22-6.24-9.17-28.1-9.17H408.91V194h22.64c18,0,20.88-.59,22.64-7.42l2.15-8.2h2.93v39.22h-2.93l-2.34-8.2c-2-6.83-4.49-7.42-22.44-7.42H408.91v36.49c0,16.78,2.93,18.54,11.12,20.1l12.49,2.34v2.73H371.25v-2.73l8.59-2.34c8-2.15,9.17-3.32,9.17-20.1V157.09c0-16.78-1.17-18-9.17-20.1l-8.59-2.34v-2.73H465.3v27.91Z"/><path class="cls-1" d="M250.75,277.87l-12,26.64c-13.58,30.29-52.23,43.87-86.18,43.87C58,348.38,9.44,271.6,9.44,176,9.44,95.58,47,21.94,136.36,21.94c34,0,81.48,12.77,88.79,45.16l6.79,29.48H241V16.71C215,7.31,179.58,0,135.19,0,79.9,0,33,17.88,0,50.19V319c34,32.85,83,50.82,140.06,50.82,44.4,0,87.21-11,105-17.76l15.14-71.56Z"/></g></g></svg>