<svg xmlns="http://www.w3.org/2000/svg" viewBox="0 0 350.52 358"><defs><style>.cls-1{fill:#fff;}</style></defs><title>lieu_1</title><g id="Calque_2" data-name="Calque 2"><g id="Calque_1-2" data-name="Calque 1"><path class="cls-1" d="M252.46,358H0v-7.43l23.34-6.36c21.75-5.83,24.93-9,24.93-54.63V68.42c0-45.61-3.18-48.79-24.93-54.63L0,7.42V0H161.23V7.42l-31.29,6.36c-22.27,4.24-27.58,9-27.58,54.63V281.63c0,49.85,7.43,54.63,29.17,54.63h33.41c54.63,0,72.13-7.42,80.62-30.23l12.73-35,11.14,2.13Z"/><path class="cls-1" d="M124.53,262.6v-1.9l6-1.63c5.57-1.49,6.38-2.31,6.38-14V188.45c0-11.68-.81-12.49-6.38-14l-6-1.63v-1.9H163.1v1.9l-6,1.63c-5.57,1.49-6.38,2.31-6.38,14v56.63c0,11.68.81,12.49,6.38,14l6,1.63v1.9Z"/><path class="cls-1" d="M238.61,262.6h-66v-1.9l6-1.63c5.57-1.49,6.38-2.31,6.38-14V188.45c0-11.68-.81-12.49-6.38-14l-6-1.63v-1.9h64.1V189h-2.17l-1.63-6.11c-1.36-5-4.35-6.38-19.56-6.38H198.82v34.9h14.4c12.49,0,14.4-.41,15.75-5.16l1.49-5h2v26.62h-2l-1.63-5.7c-1.36-4.75-3.12-5.16-15.62-5.16h-14.4V243c0,12.77,1.9,14,7.47,14h10.46c14,0,17.93-2.17,20.64-7.74l3-6.25,2.31.54Z"/><path class="cls-1" d="M169.81,152.53H124.53v-1.3l4.1-1.12c3.82-1,4.38-1.58,4.38-9.6V101.66c0-8-.56-8.57-4.38-9.6l-4.1-1.12v-1.3h44V102H167l-1.12-4.19c-.93-3.45-3-4.38-13.42-4.38h-10v23.94h9.88c8.57,0,9.88-.28,10.81-3.54l1-3.45h1.4v18.26h-1.4l-1.12-3.91c-.93-3.26-2.14-3.54-10.71-3.54h-9.88v17.89c0,8.76,1.3,9.6,5.12,9.6h7.17c9.6,0,12.3-1.49,14.16-5.31l2-4.29,1.58.37Z"/><path class="cls-1" d="M344.54,174.46c-5.3,1.49-6.25,4.21-6.25,26.07v18.74c0,23.77-7.33,45.5-37.08,45.5-24.58,0-36.67-16.16-36.67-39.52v-36.8c0-11.68-.81-12.49-6.38-14l-6-1.63v-1.9h38.57v1.9l-6,1.63c-5.57,1.49-6.38,2.31-6.38,14V222c0,16.84,5.57,35.45,26.48,35.45,22.41,0,25.94-20.64,25.94-38.71V207.46c0-29.06-1.22-31.24-7.06-32.87l-6.66-1.77v-1.9h33.41v1.9Z"/></g></g></svg>