<svg xmlns="http://www.w3.org/2000/svg" viewBox="0 0 580.95 361"><defs><style>.cls-1{fill:#fff;stroke:#fff;stroke-miterlimit:10;}</style></defs><title>table_1</title><g id="Calque_2" data-name="Calque 2"><g id="Calque_1-2" data-name="Calque 1"><path class="cls-1" d="M475.31,319.34H393.53v-2.41l7.56-2.06c7-1.89,8.08-2.92,8.08-17.7V225.52c0-14.78-1-15.81-8.08-17.7l-7.56-2.06v-2.41h52.24v2.41l-10.14,2.06c-7.21,1.37-8.93,2.92-8.93,17.7v69.07c0,16.15,2.41,17.7,9.45,17.7H447c17.7,0,23.37-2.41,26.12-9.79l4.13-11.34,3.6.69Z"/><path class="cls-1" d="M575.2,319.34H491.7v-2.41l7.56-2.06c7-1.89,8.08-2.92,8.08-17.7V225.52c0-14.78-1-15.81-8.08-17.7l-7.56-2.06v-2.41h81.1v22.85H570L568,218.48c-1.71-6.36-5.5-8.08-24.74-8.08H524.85v44.16h18.22c15.8,0,18.21-.52,19.93-6.53l1.89-6.36h2.58v33.68h-2.58l-2.06-7.22c-1.71-6-4-6.53-19.76-6.53H524.85v33c0,16.15,2.41,17.7,9.45,17.7h13.23c17.7,0,22.69-2.75,26.12-9.79l3.78-7.9,2.92.69Z"/><path class="cls-1" d="M237.43,107.92c-3.79,1.36-4.66,2.43-8.74,12.33l-21.94,52.63h-4.66l-21-54.76c-3.11-8.06-4.08-8.83-7.86-10.19l-2.72-1v-1.36H198.1v1.36l-4.27,1.17c-4,1.07-4.85,2.23-2,10l12.43,34.37a83.08,83.08,0,0,1,2.62,8.45H207a81.75,81.75,0,0,1,3.11-8.45L222,122.78c4.76-11.85,3.89-13.4-.49-14.66l-4.08-1.17v-1.36h22.72v1.36Z"/><path class="cls-1" d="M275.33,172.68c-19.81,0-33.79-11.65-33.79-34.18,0-21.56,17-34.76,33.79-34.76,18.06,0,33.89,10.68,33.89,34.76A33.67,33.67,0,0,1,275.33,172.68Zm-.1-65.15c-10.49,0-22.43,8.16-22.43,31,0,22,11.07,30.29,22.53,30.29s22.52-8.25,22.52-30.29C297.86,116.17,286.4,107.53,275.23,107.53Z"/><path class="cls-1" d="M367.13,120.93,366,115.1c-.78-3.69-3.11-5.53-14-5.53h-6.89v49c0,8.35.58,9.13,4.56,10l5.25,1.17v1.36H325.38v-1.36l5.24-1.17c4-.87,4.56-1.65,4.56-10v-49h-6.89c-10.87,0-13.2,1.85-14,5.53l-1.17,5.83h-1.65V105.59h57.29v15.34Z"/><path class="cls-1" d="M420.37,171.23c-6.12-7.87-20.78-25.83-26.8-34.08h3c8.25,0,16.31-3.2,16.31-13.79,0-11.55-6.89-14.37-16.6-14.37h-4.47V158.6c0,8.35.59,8.93,4.57,10l4.27,1.17v1.36H373.08v-1.36l4.27-1.17c4-1.07,4.57-1.65,4.57-10V118.12c0-8.35-.59-8.93-4.57-10l-4.27-1.17v-1.36h26.8c11.17,0,23.79,2,23.79,16,0,9.51-8.55,14.86-17.38,16.9,5.15,6.41,11.36,14.27,16.41,20.1,5.53,6.41,8.06,9.23,10.68,10.1l3.2,1.07v1.36Z"/><path class="cls-1" d="M487.21,171.13H440v-1.36l4.27-1.17c4-1.07,4.57-1.65,4.57-10V118.12c0-8.35-.59-8.93-4.57-10L440,106.95v-1.36h45.83V118.5h-1.55l-1.17-4.37c-1-3.59-3.11-4.57-14-4.57H458.76v25h10.29c8.93,0,10.29-.29,11.26-3.69l1.07-3.59h1.46v19h-1.46l-1.17-4.08c-1-3.4-2.23-3.69-11.16-3.69H458.76v18.64c0,9.13,1.36,10,5.34,10h7.48c10,0,12.82-1.55,14.76-5.53l2.13-4.47,1.65.39Z"/><path class="cls-1" d="M228.27,319.34v-2.41l7.56-2.06c7-1.89,8.76-4,3.61-17.7l-7.22-19.59H189.44L185,288.92c-8.25,21-6.87,23.71.86,25.95l7.22,2.06v2.41H153.18v-2.41l4.81-1.72c6.7-2.4,8.07-4.3,15.47-21.82l39-93.13h8.42l37.45,96.91c5.5,14.26,7.22,15.64,13.92,18l4.81,1.72v2.41Zm-11.51-84s-4.3-12-4.81-14.77h-.35c-.51,2.4-5.32,14.77-5.32,14.77l-13.92,35.05h37.29Z"/><path class="cls-1" d="M328.86,319.34h-45.7v-2.41l7.56-2.06c7-1.89,8.08-2.92,8.08-17.7V225.52c0-14.78-1-15.81-8.08-17.7l-7.56-2.06v-2.41h46c14.61,0,42.78,0,42.78,24.92,0,14.95-17,24.06-24.57,25.95v.69c15.12.34,30.07,10.65,30.07,28.7C377.49,309.89,352.23,319.34,328.86,319.34Zm-4.64-110.14h-7.9v45h10.31c7.39,0,26.81-2.06,26.81-23C353.44,210.74,336.42,209.19,324.22,209.19ZM328,260.4H316.32v35.05c0,16.15,2.41,17.7,9.45,17.7h2.57c14.61,0,29.21-6.36,29.21-26.63C357.56,265,343.13,260.4,328,260.4Z"/><path class="cls-1" d="M.5.5V23.6c8.56-.73,17.9-1.1,29.25-1.1H67.5V292c0,45.9-2.76,50.16-24.63,55L14.5,353.33v7.17h161v-7.17l-28.88-6.41c-21.88-4.8-25.12-9.06-25.12-55V22.5h38.44c59.76,0,72.56,10.43,76.84,30.7l6.39,32.3h9.34V.5Z"/></g></g></svg>