<svg xmlns="http://www.w3.org/2000/svg" viewBox="0 0 1001.03 831.18"><defs><style>.cls-1,.cls-3{opacity:0.4;}.cls-2,.cls-3{fill:#c6c6c6;}.cls-4{fill:#fff;}.cls-16,.cls-4,.cls-9{stroke:#515151;}.cls-13,.cls-16,.cls-4,.cls-6,.cls-7,.cls-8,.cls-9{stroke-miterlimit:10;}.cls-5{fill:#d6d6d6;}.cls-11,.cls-6{fill:#ddd;}.cls-6{stroke:#878787;}.cls-13,.cls-16,.cls-7,.cls-8,.cls-9{fill:none;}.cls-13,.cls-7,.cls-8{stroke:#999;}.cls-8{stroke-dasharray:12.18 12.18;}.cls-16,.cls-9{stroke-linecap:round;}.cls-10{font-size:9.81px;}.cls-10,.cls-14{font-family:Quicksand-Light, Quicksand;}.cls-12{fill:#878787;}.cls-13{stroke-dasharray:11.84 11.84;}.cls-14{font-size:5.64px;}.cls-15{fill:#b2b2b2;}.cls-16{stroke-width:0.5px;}</style></defs><title>lieu</title><g id="Calque_2" data-name="Calque 2"><g id="Device"><g id="Ordinateur" class="cls-1"><path class="cls-2" d="M19.25,308.3v33.6a10.37,10.37,0,0,0,10.34,10.34H515.11a10.37,10.37,0,0,0,10.34-10.34V308.3Z"/><path class="cls-2" d="M515.11,1.13H29.59A10.37,10.37,0,0,0,19.25,11.47V308.3H525.45V11.47A10.37,10.37,0,0,0,515.11,1.13ZM272.35,8.87a2.83,2.83,0,1,1-2.83,2.83A2.83,2.83,0,0,1,272.35,8.87Zm237.59,280H34.76V22.23H509.94Z"/></g><path id="tablette" class="cls-3" d="M865.92,0H545.17a9,9,0,0,0-9.08,8.81V225a9,9,0,0,0,9.08,8.81H865.92A9,9,0,0,0,875,225V8.81A9,9,0,0,0,865.92,0Zm-313,101.88h3.56v20.94h-3.56ZM554.71,132a2.22,2.22,0,1,1,2.28-2.22A2.25,2.25,0,0,1,554.71,132Zm285.12,86.47H570.37v-203H839.82Zm17.49-94a7.51,7.51,0,1,1,7.73-7.51A7.62,7.62,0,0,1,857.31,124.43Z"/><path id="Phone" class="cls-3" d="M993.64,1.13H903.86c-4.06,0-7.39,3.63-7.39,8.08V200.79c0,4.44,3.33,8.08,7.39,8.08h89.78c4.06,0,7.39-3.63,7.39-8.08V9.2C1001,4.76,997.7,1.13,993.64,1.13ZM943.81,11.32h17.55v3.17H943.81ZM938,10.87a2,2,0,0,1,1.85,2,1.86,1.86,0,1,1-3.71,0A2,2,0,0,1,938,10.87ZM948.75,203c-3.48,0-6.29-3.08-6.29-6.88s2.81-6.88,6.29-6.88,6.3,3.08,6.3,6.88S952.22,203,948.75,203Zm45.75-19.89H903V23.31h91.49Z"/></g><g id="Ordinateur-2" data-name="Ordinateur"><rect class="cls-4" x="34.1" y="21.61" width="476.07" height="809.07"/><rect class="cls-5" x="34.13" y="21.61" width="475.2" height="36.43"/><rect class="cls-6" x="34.76" y="58.04" width="304.24" height="230.87"/><line class="cls-6" x1="34.76" y1="58.04" x2="339" y2="288.91"/><line class="cls-6" x1="34.76" y1="288.91" x2="339" y2="58.04"/><rect class="cls-6" x="323.23" y="70.04" width="93.37" height="89.77"/><line class="cls-6" x1="323.23" y1="70.04" x2="416.6" y2="159.81"/><line class="cls-6" x1="323.23" y1="159.81" x2="416.6" y2="70.04"/><rect class="cls-6" x="53.86" y="26.06" width="154.81" height="29.22"/><line class="cls-6" x1="53.86" y1="55.28" x2="208.67" y2="26.06"/><line class="cls-6" x1="53.86" y1="26.06" x2="208.67" y2="55.28"/><line class="cls-7" y1="288.91" x2="6" y2="288.91"/><line class="cls-8" x1="18.18" y1="288.91" x2="523.67" y2="288.91"/><line class="cls-7" x1="529.76" y1="288.91" x2="535.76" y2="288.91"/><line class="cls-7" y1="558.21" x2="6" y2="558.21"/><line class="cls-8" x1="18.18" y1="558.21" x2="523.67" y2="558.21"/><line class="cls-7" x1="529.76" y1="558.21" x2="535.76" y2="558.21"/><line class="cls-9" x1="493.95" y1="32.5" x2="468.87" y2="32.5"/><line class="cls-9" x1="493.95" y1="39.82" x2="468.87" y2="39.82"/><line class="cls-9" x1="493.95" y1="47.15" x2="468.87" y2="47.15"/><text class="cls-10" transform="translate(435.66 43.86)">MENU</text><rect class="cls-5" x="34.13" y="289.01" width="475.2" height="36.43"/><rect class="cls-6" x="53.86" y="293.46" width="154.81" height="29.22"/><line class="cls-6" x1="53.86" y1="322.68" x2="208.67" y2="293.46"/><line class="cls-6" x1="53.86" y1="293.46" x2="208.67" y2="322.68"/><line class="cls-9" x1="493.95" y1="299.9" x2="468.87" y2="299.9"/><line class="cls-9" x1="493.95" y1="307.22" x2="468.87" y2="307.22"/><line class="cls-9" x1="493.95" y1="314.55" x2="468.87" y2="314.55"/><text class="cls-10" transform="translate(435.66 311.26)">MENU</text><path class="cls-11" d="M471.05,187.28H364.27c-1.3,0-2.36-.29-2.36-.64s1.05-.64,2.36-.64H471.05c1.3,0,2.36.29,2.36.64S472.35,187.28,471.05,187.28Z"/><path class="cls-11" d="M471.05,190.42H364.27c-1.3,0-2.36-.29-2.36-.64s1.05-.64,2.36-.64H471.05c1.3,0,2.36.29,2.36.64S472.35,190.42,471.05,190.42Z"/><path class="cls-11" d="M471.05,193.57H364.27c-1.3,0-2.36-.29-2.36-.64s1.05-.64,2.36-.64H471.05c1.3,0,2.36.29,2.36.64S472.35,193.57,471.05,193.57Z"/><path class="cls-11" d="M471.05,196.71H364.27c-1.3,0-2.36-.29-2.36-.64s1.05-.64,2.36-.64H471.05c1.3,0,2.36.29,2.36.64S472.35,196.71,471.05,196.71Z"/><path class="cls-11" d="M471.05,199.85H364.27c-1.3,0-2.36-.29-2.36-.64s1.05-.64,2.36-.64H471.05c1.3,0,2.36.29,2.36.64S472.35,199.85,471.05,199.85Z"/><path class="cls-11" d="M471.05,203H364.27c-1.3,0-2.36-.29-2.36-.64s1.05-.64,2.36-.64H471.05c1.3,0,2.36.29,2.36.64S472.35,203,471.05,203Z"/><path class="cls-11" d="M471.05,206.14H364.27c-1.3,0-2.36-.29-2.36-.64s1.05-.64,2.36-.64H471.05c1.3,0,2.36.29,2.36.64S472.35,206.14,471.05,206.14Z"/><path class="cls-11" d="M471.05,209.28H364.27c-1.3,0-2.36-.29-2.36-.64s1.05-.64,2.36-.64H471.05c1.3,0,2.36.29,2.36.64S472.35,209.28,471.05,209.28Z"/><path class="cls-11" d="M471.05,212.43H364.27c-1.3,0-2.36-.29-2.36-.64s1.05-.64,2.36-.64H471.05c1.3,0,2.36.29,2.36.64S472.35,212.43,471.05,212.43Z"/><path class="cls-11" d="M471.05,215.57H364.27c-1.3,0-2.36-.29-2.36-.64s1.05-.64,2.36-.64H471.05c1.3,0,2.36.29,2.36.64S472.35,215.57,471.05,215.57Z"/><path class="cls-11" d="M471.05,218.72H364.27c-1.3,0-2.36-.29-2.36-.64s1.05-.64,2.36-.64H471.05c1.3,0,2.36.29,2.36.64S472.35,218.72,471.05,218.72Z"/><path class="cls-11" d="M471.05,221.86H364.27c-1.3,0-2.36-.29-2.36-.64s1.05-.64,2.36-.64H471.05c1.3,0,2.36.29,2.36.64S472.35,221.86,471.05,221.86Z"/><path class="cls-11" d="M471.05,225H364.27c-1.3,0-2.36-.29-2.36-.64s1.05-.64,2.36-.64H471.05c1.3,0,2.36.29,2.36.64S472.35,225,471.05,225Z"/><path class="cls-11" d="M471.05,228.15H364.27c-1.3,0-2.36-.29-2.36-.64s1.05-.64,2.36-.64H471.05c1.3,0,2.36.29,2.36.64S472.35,228.15,471.05,228.15Z"/><path class="cls-11" d="M471.05,231.29H364.27c-1.3,0-2.36-.29-2.36-.64s1.05-.64,2.36-.64H471.05c1.3,0,2.36.29,2.36.64S472.35,231.29,471.05,231.29Z"/><path class="cls-11" d="M471.05,234.43H364.27c-1.3,0-2.36-.29-2.36-.64s1.05-.64,2.36-.64H471.05c1.3,0,2.36.29,2.36.64S472.35,234.43,471.05,234.43Z"/><path class="cls-11" d="M471.05,237.58H364.27c-1.3,0-2.36-.29-2.36-.64s1.05-.64,2.36-.64H471.05c1.3,0,2.36.29,2.36.64S472.35,237.58,471.05,237.58Z"/><path class="cls-11" d="M471.05,240.72H364.27c-1.3,0-2.36-.29-2.36-.64s1.05-.64,2.36-.64H471.05c1.3,0,2.36.29,2.36.64S472.35,240.72,471.05,240.72Z"/><path class="cls-11" d="M471.05,243.87H364.27c-1.3,0-2.36-.29-2.36-.64s1.05-.64,2.36-.64H471.05c1.3,0,2.36.29,2.36.64S472.35,243.87,471.05,243.87Z"/><path class="cls-11" d="M471.05,247H364.27c-1.3,0-2.36-.29-2.36-.64s1.05-.64,2.36-.64H471.05c1.3,0,2.36.29,2.36.64S472.35,247,471.05,247Z"/><path class="cls-12" d="M426.27,178.28h-63a1.7,1.7,0,0,1,0-3.34h63a1.7,1.7,0,0,1,0,3.34Z"/><rect class="cls-6" x="34.76" y="326.06" width="104.98" height="230.87"/><line class="cls-6" x1="34.76" y1="326.06" x2="139.74" y2="556.93"/><line class="cls-6" x1="34.76" y1="556.93" x2="139.74" y2="326.06"/><rect class="cls-6" x="145.95" y="338.83" width="93.37" height="205.33"/><line class="cls-6" x1="145.95" y1="338.83" x2="239.32" y2="544.16"/><line class="cls-6" x1="145.95" y1="544.16" x2="239.32" y2="338.83"/><rect class="cls-6" x="245.63" y="338.83" width="93.37" height="205.33"/><line class="cls-6" x1="245.63" y1="338.83" x2="339" y2="544.16"/><line class="cls-6" x1="245.63" y1="544.16" x2="339" y2="338.83"/><rect class="cls-6" x="323.23" y="338.06" width="93.37" height="89.77"/><line class="cls-6" x1="323.23" y1="338.06" x2="416.6" y2="427.83"/><line class="cls-6" x1="323.23" y1="427.83" x2="416.6" y2="338.06"/><path class="cls-11" d="M471.05,455.3H364.27c-1.3,0-2.36-.29-2.36-.64s1.05-.64,2.36-.64H471.05c1.3,0,2.36.29,2.36.64S472.35,455.3,471.05,455.3Z"/><path class="cls-11" d="M471.05,458.44H364.27c-1.3,0-2.36-.29-2.36-.64s1.05-.64,2.36-.64H471.05c1.3,0,2.36.29,2.36.64S472.35,458.44,471.05,458.44Z"/><path class="cls-11" d="M471.05,461.59H364.27c-1.3,0-2.36-.29-2.36-.64s1.05-.64,2.36-.64H471.05c1.3,0,2.36.29,2.36.64S472.35,461.59,471.05,461.59Z"/><path class="cls-11" d="M471.05,464.73H364.27c-1.3,0-2.36-.29-2.36-.64s1.05-.64,2.36-.64H471.05c1.3,0,2.36.29,2.36.64S472.35,464.73,471.05,464.73Z"/><path class="cls-11" d="M471.05,467.88H364.27c-1.3,0-2.36-.29-2.36-.64s1.05-.64,2.36-.64H471.05c1.3,0,2.36.29,2.36.64S472.35,467.88,471.05,467.88Z"/><path class="cls-11" d="M471.05,471H364.27c-1.3,0-2.36-.29-2.36-.64s1.05-.64,2.36-.64H471.05c1.3,0,2.36.29,2.36.64S472.35,471,471.05,471Z"/><path class="cls-11" d="M471.05,474.16H364.27c-1.3,0-2.36-.29-2.36-.64s1.05-.64,2.36-.64H471.05c1.3,0,2.36.29,2.36.64S472.35,474.16,471.05,474.16Z"/><path class="cls-11" d="M471.05,477.31H364.27c-1.3,0-2.36-.29-2.36-.64s1.05-.64,2.36-.64H471.05c1.3,0,2.36.29,2.36.64S472.35,477.31,471.05,477.31Z"/><path class="cls-11" d="M471.05,480.45H364.27c-1.3,0-2.36-.29-2.36-.64s1.05-.64,2.36-.64H471.05c1.3,0,2.36.29,2.36.64S472.35,480.45,471.05,480.45Z"/><path class="cls-11" d="M471.05,483.59H364.27c-1.3,0-2.36-.29-2.36-.64s1.05-.64,2.36-.64H471.05c1.3,0,2.36.29,2.36.64S472.35,483.59,471.05,483.59Z"/><path class="cls-11" d="M471.05,486.74H364.27c-1.3,0-2.36-.29-2.36-.64s1.05-.64,2.36-.64H471.05c1.3,0,2.36.29,2.36.64S472.35,486.74,471.05,486.74Z"/><path class="cls-11" d="M471.05,489.88H364.27c-1.3,0-2.36-.29-2.36-.64s1.05-.64,2.36-.64H471.05c1.3,0,2.36.29,2.36.64S472.35,489.88,471.05,489.88Z"/><path class="cls-11" d="M471.05,493H364.27c-1.3,0-2.36-.29-2.36-.64s1.05-.64,2.36-.64H471.05c1.3,0,2.36.29,2.36.64S472.35,493,471.05,493Z"/><path class="cls-11" d="M471.05,496.17H364.27c-1.3,0-2.36-.29-2.36-.64s1.05-.64,2.36-.64H471.05c1.3,0,2.36.29,2.36.64S472.35,496.17,471.05,496.17Z"/><path class="cls-11" d="M471.05,499.31H364.27c-1.3,0-2.36-.29-2.36-.64s1.05-.64,2.36-.64H471.05c1.3,0,2.36.29,2.36.64S472.35,499.31,471.05,499.31Z"/><path class="cls-11" d="M471.05,502.46H364.27c-1.3,0-2.36-.29-2.36-.64s1.05-.64,2.36-.64H471.05c1.3,0,2.36.29,2.36.64S472.35,502.46,471.05,502.46Z"/><path class="cls-11" d="M471.05,505.6H364.27c-1.3,0-2.36-.29-2.36-.64s1.05-.64,2.36-.64H471.05c1.3,0,2.36.29,2.36.64S472.35,505.6,471.05,505.6Z"/><path class="cls-11" d="M471.05,508.74H364.27c-1.3,0-2.36-.29-2.36-.64s1.05-.64,2.36-.64H471.05c1.3,0,2.36.29,2.36.64S472.35,508.74,471.05,508.74Z"/><path class="cls-11" d="M471.05,511.89H364.27c-1.3,0-2.36-.29-2.36-.64s1.05-.64,2.36-.64H471.05c1.3,0,2.36.29,2.36.64S472.35,511.89,471.05,511.89Z"/><path class="cls-11" d="M471.05,515H364.27c-1.3,0-2.36-.29-2.36-.64s1.05-.64,2.36-.64H471.05c1.3,0,2.36.29,2.36.64S472.35,515,471.05,515Z"/><path class="cls-12" d="M426.27,446.3h-63a1.7,1.7,0,0,1,0-3.34h63a1.7,1.7,0,0,1,0,3.34Z"/><rect class="cls-5" x="34.13" y="557.48" width="475.2" height="36.43"/><rect class="cls-6" x="53.86" y="561.93" width="154.81" height="29.22"/><line class="cls-6" x1="53.86" y1="591.15" x2="208.67" y2="561.93"/><line class="cls-6" x1="53.86" y1="561.93" x2="208.67" y2="591.15"/><line class="cls-9" x1="493.95" y1="568.37" x2="468.87" y2="568.37"/><line class="cls-9" x1="493.95" y1="575.69" x2="468.87" y2="575.69"/><line class="cls-9" x1="493.95" y1="583.02" x2="468.87" y2="583.02"/><text class="cls-10" transform="translate(435.66 579.73)">MENU</text><path class="cls-11" d="M471.05,723.77H364.27c-1.3,0-2.36-.29-2.36-.64s1.05-.64,2.36-.64H471.05c1.3,0,2.36.29,2.36.64S472.35,723.77,471.05,723.77Z"/><path class="cls-11" d="M471.05,726.92H364.27c-1.3,0-2.36-.29-2.36-.64s1.05-.64,2.36-.64H471.05c1.3,0,2.36.29,2.36.64S472.35,726.92,471.05,726.92Z"/><path class="cls-11" d="M471.05,730.06H364.27c-1.3,0-2.36-.29-2.36-.64s1.05-.64,2.36-.64H471.05c1.3,0,2.36.29,2.36.64S472.35,730.06,471.05,730.06Z"/><path class="cls-11" d="M471.05,733.2H364.27c-1.3,0-2.36-.29-2.36-.64s1.05-.64,2.36-.64H471.05c1.3,0,2.36.29,2.36.64S472.35,733.2,471.05,733.2Z"/><path class="cls-11" d="M471.05,736.35H364.27c-1.3,0-2.36-.29-2.36-.64s1.05-.64,2.36-.64H471.05c1.3,0,2.36.29,2.36.64S472.35,736.35,471.05,736.35Z"/><path class="cls-11" d="M471.05,739.49H364.27c-1.3,0-2.36-.29-2.36-.64s1.05-.64,2.36-.64H471.05c1.3,0,2.36.29,2.36.64S472.35,739.49,471.05,739.49Z"/><path class="cls-11" d="M471.05,742.63H364.27c-1.3,0-2.36-.29-2.36-.64s1.05-.64,2.36-.64H471.05c1.3,0,2.36.29,2.36.64S472.35,742.63,471.05,742.63Z"/><path class="cls-11" d="M471.05,745.78H364.27c-1.3,0-2.36-.29-2.36-.64s1.05-.64,2.36-.64H471.05c1.3,0,2.36.29,2.36.64S472.35,745.78,471.05,745.78Z"/><path class="cls-11" d="M471.05,748.92H364.27c-1.3,0-2.36-.29-2.36-.64s1.05-.64,2.36-.64H471.05c1.3,0,2.36.29,2.36.64S472.35,748.92,471.05,748.92Z"/><path class="cls-11" d="M471.05,752.07H364.27c-1.3,0-2.36-.29-2.36-.64s1.05-.64,2.36-.64H471.05c1.3,0,2.36.29,2.36.64S472.35,752.07,471.05,752.07Z"/><path class="cls-11" d="M471.05,755.21H364.27c-1.3,0-2.36-.29-2.36-.64s1.05-.64,2.36-.64H471.05c1.3,0,2.36.29,2.36.64S472.35,755.21,471.05,755.21Z"/><path class="cls-11" d="M471.05,758.35H364.27c-1.3,0-2.36-.29-2.36-.64s1.05-.64,2.36-.64H471.05c1.3,0,2.36.29,2.36.64S472.35,758.35,471.05,758.35Z"/><path class="cls-11" d="M471.05,761.5H364.27c-1.3,0-2.36-.29-2.36-.64s1.05-.64,2.36-.64H471.05c1.3,0,2.36.29,2.36.64S472.35,761.5,471.05,761.5Z"/><path class="cls-11" d="M471.05,764.64H364.27c-1.3,0-2.36-.29-2.36-.64s1.05-.64,2.36-.64H471.05c1.3,0,2.36.29,2.36.64S472.35,764.64,471.05,764.64Z"/><path class="cls-11" d="M471.05,767.78H364.27c-1.3,0-2.36-.29-2.36-.64s1.05-.64,2.36-.64H471.05c1.3,0,2.36.29,2.36.64S472.35,767.78,471.05,767.78Z"/><path class="cls-11" d="M471.05,770.93H364.27c-1.3,0-2.36-.29-2.36-.64s1.05-.64,2.36-.64H471.05c1.3,0,2.36.29,2.36.64S472.35,770.93,471.05,770.93Z"/><path class="cls-11" d="M471.05,774.07H364.27c-1.3,0-2.36-.29-2.36-.64s1.05-.64,2.36-.64H471.05c1.3,0,2.36.29,2.36.64S472.35,774.07,471.05,774.07Z"/><path class="cls-11" d="M471.05,777.22H364.27c-1.3,0-2.36-.29-2.36-.64s1.05-.64,2.36-.64H471.05c1.3,0,2.36.29,2.36.64S472.35,777.22,471.05,777.22Z"/><path class="cls-11" d="M471.05,780.36H364.27c-1.3,0-2.36-.29-2.36-.64s1.05-.64,2.36-.64H471.05c1.3,0,2.36.29,2.36.64S472.35,780.36,471.05,780.36Z"/><path class="cls-11" d="M471.05,783.5H364.27c-1.3,0-2.36-.29-2.36-.64s1.05-.64,2.36-.64H471.05c1.3,0,2.36.29,2.36.64S472.35,783.5,471.05,783.5Z"/><path class="cls-12" d="M426.27,714.77h-63a1.7,1.7,0,0,1,0-3.34h63a1.7,1.7,0,0,1,0,3.34Z"/><rect class="cls-6" x="186.55" y="593.44" width="152.45" height="117.74"/><line class="cls-6" x1="186.55" y1="593.44" x2="339" y2="711.17"/><line class="cls-6" x1="186.55" y1="711.17" x2="339" y2="593.44"/><rect class="cls-6" x="186.55" y="711.36" width="152.45" height="118.07"/><line class="cls-6" x1="186.55" y1="711.36" x2="339" y2="829.42"/><line class="cls-6" x1="186.55" y1="829.42" x2="339" y2="711.36"/><rect class="cls-6" x="34.1" y="593.44" width="152.45" height="117.74"/><line class="cls-6" x1="34.1" y1="593.44" x2="186.55" y2="711.17"/><line class="cls-6" x1="34.1" y1="711.17" x2="186.55" y2="593.44"/><rect class="cls-6" x="34.1" y="711.36" width="152.45" height="118.07"/><line class="cls-6" x1="34.1" y1="711.36" x2="186.55" y2="829.42"/><line class="cls-6" x1="34.1" y1="829.42" x2="186.55" y2="711.36"/><rect class="cls-6" x="323.23" y="607.42" width="93.37" height="89.77"/><line class="cls-6" x1="323.23" y1="607.42" x2="416.6" y2="697.19"/><line class="cls-6" x1="323.23" y1="697.19" x2="416.6" y2="607.42"/></g><g id="Tablette-2" data-name="Tablette"><rect class="cls-4" x="569.32" y="15.64" width="273.79" height="465.3"/><rect class="cls-5" x="569.34" y="15.64" width="273.29" height="20.95"/><rect class="cls-6" x="569.7" y="36.58" width="174.97" height="132.77"/><line class="cls-6" x1="569.7" y1="36.58" x2="744.67" y2="169.36"/><line class="cls-6" x1="569.7" y1="169.36" x2="744.67" y2="36.58"/><rect class="cls-6" x="735.6" y="43.48" width="53.7" height="51.63"/><line class="cls-6" x1="735.6" y1="43.48" x2="789.3" y2="95.11"/><line class="cls-6" x1="735.6" y1="95.11" x2="789.3" y2="43.48"/><rect class="cls-6" x="580.69" y="18.2" width="89.03" height="16.8"/><line class="cls-6" x1="580.69" y1="35" x2="669.72" y2="18.2"/><line class="cls-6" x1="580.69" y1="18.2" x2="669.72" y2="35"/><line class="cls-7" x1="549.71" y1="169.36" x2="555.71" y2="169.36"/><line class="cls-13" x1="567.56" y1="169.36" x2="845.91" y2="169.36"/><line class="cls-7" x1="851.83" y1="169.36" x2="857.83" y2="169.36"/><line class="cls-7" x1="549.71" y1="324.23" x2="555.71" y2="324.23"/><line class="cls-13" x1="567.56" y1="324.23" x2="845.91" y2="324.23"/><line class="cls-7" x1="851.83" y1="324.23" x2="857.83" y2="324.23"/><line class="cls-9" x1="833.79" y1="21.9" x2="819.36" y2="21.9"/><line class="cls-9" x1="833.79" y1="26.11" x2="819.36" y2="26.11"/><line class="cls-9" x1="833.79" y1="30.32" x2="819.36" y2="30.32"/><text class="cls-14" transform="translate(800.26 28.43)">MENU</text><rect class="cls-5" x="569.34" y="169.42" width="273.29" height="20.95"/><rect class="cls-6" x="580.69" y="171.98" width="89.03" height="16.8"/><line class="cls-6" x1="580.69" y1="188.78" x2="669.72" y2="171.98"/><line class="cls-6" x1="580.69" y1="171.98" x2="669.72" y2="188.78"/><line class="cls-9" x1="833.79" y1="175.68" x2="819.36" y2="175.68"/><line class="cls-9" x1="833.79" y1="179.89" x2="819.36" y2="179.89"/><line class="cls-9" x1="833.79" y1="184.11" x2="819.36" y2="184.11"/><text class="cls-14" transform="translate(800.26 182.21)">MENU</text><path class="cls-11" d="M820.62,110.91H759.21c-.75,0-1.36-.16-1.36-.37s.61-.37,1.36-.37h61.41c.75,0,1.36.16,1.36.37S821.36,110.91,820.62,110.91Z"/><path class="cls-11" d="M820.62,112.72H759.21c-.75,0-1.36-.16-1.36-.37s.61-.37,1.36-.37h61.41c.75,0,1.36.16,1.36.37S821.36,112.72,820.62,112.72Z"/><path class="cls-11" d="M820.62,114.53H759.21c-.75,0-1.36-.16-1.36-.37s.61-.37,1.36-.37h61.41c.75,0,1.36.16,1.36.37S821.36,114.53,820.62,114.53Z"/><path class="cls-11" d="M820.62,116.33H759.21c-.75,0-1.36-.16-1.36-.37s.61-.37,1.36-.37h61.41c.75,0,1.36.16,1.36.37S821.36,116.33,820.62,116.33Z"/><path class="cls-11" d="M820.62,118.14H759.21c-.75,0-1.36-.16-1.36-.37s.61-.37,1.36-.37h61.41c.75,0,1.36.16,1.36.37S821.36,118.14,820.62,118.14Z"/><path class="cls-11" d="M820.62,120H759.21c-.75,0-1.36-.16-1.36-.37s.61-.37,1.36-.37h61.41c.75,0,1.36.16,1.36.37S821.36,120,820.62,120Z"/><path class="cls-11" d="M820.62,121.76H759.21c-.75,0-1.36-.16-1.36-.37s.61-.37,1.36-.37h61.41c.75,0,1.36.16,1.36.37S821.36,121.76,820.62,121.76Z"/><path class="cls-11" d="M820.62,123.57H759.21c-.75,0-1.36-.16-1.36-.37s.61-.37,1.36-.37h61.41c.75,0,1.36.16,1.36.37S821.36,123.57,820.62,123.57Z"/><path class="cls-11" d="M820.62,125.37H759.21c-.75,0-1.36-.16-1.36-.37s.61-.37,1.36-.37h61.41c.75,0,1.36.16,1.36.37S821.36,125.37,820.62,125.37Z"/><path class="cls-11" d="M820.62,127.18H759.21c-.75,0-1.36-.16-1.36-.37s.61-.37,1.36-.37h61.41c.75,0,1.36.16,1.36.37S821.36,127.18,820.62,127.18Z"/><path class="cls-11" d="M820.62,129H759.21c-.75,0-1.36-.16-1.36-.37s.61-.37,1.36-.37h61.41c.75,0,1.36.16,1.36.37S821.36,129,820.62,129Z"/><path class="cls-11" d="M820.62,130.8H759.21c-.75,0-1.36-.16-1.36-.37s.61-.37,1.36-.37h61.41c.75,0,1.36.16,1.36.37S821.36,130.8,820.62,130.8Z"/><path class="cls-11" d="M820.62,132.61H759.21c-.75,0-1.36-.16-1.36-.37s.61-.37,1.36-.37h61.41c.75,0,1.36.16,1.36.37S821.36,132.61,820.62,132.61Z"/><path class="cls-11" d="M820.62,134.41H759.21c-.75,0-1.36-.16-1.36-.37s.61-.37,1.36-.37h61.41c.75,0,1.36.16,1.36.37S821.36,134.41,820.62,134.41Z"/><path class="cls-11" d="M820.62,136.22H759.21c-.75,0-1.36-.16-1.36-.37s.61-.37,1.36-.37h61.41c.75,0,1.36.16,1.36.37S821.36,136.22,820.62,136.22Z"/><path class="cls-11" d="M820.62,138H759.21c-.75,0-1.36-.16-1.36-.37s.61-.37,1.36-.37h61.41c.75,0,1.36.16,1.36.37S821.36,138,820.62,138Z"/><path class="cls-11" d="M820.62,139.84H759.21c-.75,0-1.36-.16-1.36-.37s.61-.37,1.36-.37h61.41c.75,0,1.36.16,1.36.37S821.36,139.84,820.62,139.84Z"/><path class="cls-11" d="M820.62,141.65H759.21c-.75,0-1.36-.16-1.36-.37s.61-.37,1.36-.37h61.41c.75,0,1.36.16,1.36.37S821.36,141.65,820.62,141.65Z"/><path class="cls-11" d="M820.62,143.45H759.21c-.75,0-1.36-.16-1.36-.37s.61-.37,1.36-.37h61.41c.75,0,1.36.16,1.36.37S821.36,143.45,820.62,143.45Z"/><path class="cls-11" d="M820.62,145.26H759.21c-.75,0-1.36-.16-1.36-.37s.61-.37,1.36-.37h61.41c.75,0,1.36.16,1.36.37S821.36,145.26,820.62,145.26Z"/><path class="cls-12" d="M794.86,105.74H758.65a1,1,0,0,1,0-1.92h36.21a1,1,0,0,1,0,1.92Z"/><rect class="cls-6" x="569.7" y="190.73" width="60.38" height="132.77"/><line class="cls-6" x1="569.7" y1="190.73" x2="630.08" y2="323.5"/><line class="cls-6" x1="569.7" y1="323.5" x2="630.08" y2="190.73"/><rect class="cls-6" x="633.65" y="198.07" width="53.7" height="118.09"/><line class="cls-6" x1="633.65" y1="198.07" x2="687.35" y2="316.16"/><line class="cls-6" x1="633.65" y1="316.16" x2="687.35" y2="198.07"/><rect class="cls-6" x="690.97" y="198.07" width="53.7" height="118.09"/><line class="cls-6" x1="690.97" y1="198.07" x2="744.67" y2="316.16"/><line class="cls-6" x1="690.97" y1="316.16" x2="744.67" y2="198.07"/><rect class="cls-6" x="735.6" y="197.62" width="53.7" height="51.63"/><line class="cls-6" x1="735.6" y1="197.62" x2="789.3" y2="249.25"/><line class="cls-6" x1="735.6" y1="249.25" x2="789.3" y2="197.62"/><path class="cls-11" d="M820.62,265.05H759.21c-.75,0-1.36-.16-1.36-.37s.61-.37,1.36-.37h61.41c.75,0,1.36.16,1.36.37S821.36,265.05,820.62,265.05Z"/><path class="cls-11" d="M820.62,266.86H759.21c-.75,0-1.36-.16-1.36-.37s.61-.37,1.36-.37h61.41c.75,0,1.36.16,1.36.37S821.36,266.86,820.62,266.86Z"/><path class="cls-11" d="M820.62,268.67H759.21c-.75,0-1.36-.16-1.36-.37s.61-.37,1.36-.37h61.41c.75,0,1.36.16,1.36.37S821.36,268.67,820.62,268.67Z"/><path class="cls-11" d="M820.62,270.48H759.21c-.75,0-1.36-.16-1.36-.37s.61-.37,1.36-.37h61.41c.75,0,1.36.16,1.36.37S821.36,270.48,820.62,270.48Z"/><path class="cls-11" d="M820.62,272.28H759.21c-.75,0-1.36-.16-1.36-.37s.61-.37,1.36-.37h61.41c.75,0,1.36.16,1.36.37S821.36,272.28,820.62,272.28Z"/><path class="cls-11" d="M820.62,274.09H759.21c-.75,0-1.36-.16-1.36-.37s.61-.37,1.36-.37h61.41c.75,0,1.36.16,1.36.37S821.36,274.09,820.62,274.09Z"/><path class="cls-11" d="M820.62,275.9H759.21c-.75,0-1.36-.16-1.36-.37s.61-.37,1.36-.37h61.41c.75,0,1.36.16,1.36.37S821.36,275.9,820.62,275.9Z"/><path class="cls-11" d="M820.62,277.71H759.21c-.75,0-1.36-.16-1.36-.37s.61-.37,1.36-.37h61.41c.75,0,1.36.16,1.36.37S821.36,277.71,820.62,277.71Z"/><path class="cls-11" d="M820.62,279.52H759.21c-.75,0-1.36-.16-1.36-.37s.61-.37,1.36-.37h61.41c.75,0,1.36.16,1.36.37S821.36,279.52,820.62,279.52Z"/><path class="cls-11" d="M820.62,281.32H759.21c-.75,0-1.36-.16-1.36-.37s.61-.37,1.36-.37h61.41c.75,0,1.36.16,1.36.37S821.36,281.32,820.62,281.32Z"/><path class="cls-11" d="M820.62,283.13H759.21c-.75,0-1.36-.16-1.36-.37s.61-.37,1.36-.37h61.41c.75,0,1.36.16,1.36.37S821.36,283.13,820.62,283.13Z"/><path class="cls-11" d="M820.62,284.94H759.21c-.75,0-1.36-.16-1.36-.37s.61-.37,1.36-.37h61.41c.75,0,1.36.16,1.36.37S821.36,284.94,820.62,284.94Z"/><path class="cls-11" d="M820.62,286.75H759.21c-.75,0-1.36-.16-1.36-.37s.61-.37,1.36-.37h61.41c.75,0,1.36.16,1.36.37S821.36,286.75,820.62,286.75Z"/><path class="cls-11" d="M820.62,288.56H759.21c-.75,0-1.36-.16-1.36-.37s.61-.37,1.36-.37h61.41c.75,0,1.36.16,1.36.37S821.36,288.56,820.62,288.56Z"/><path class="cls-11" d="M820.62,290.36H759.21c-.75,0-1.36-.16-1.36-.37s.61-.37,1.36-.37h61.41c.75,0,1.36.16,1.36.37S821.36,290.36,820.62,290.36Z"/><path class="cls-11" d="M820.62,292.17H759.21c-.75,0-1.36-.16-1.36-.37s.61-.37,1.36-.37h61.41c.75,0,1.36.16,1.36.37S821.36,292.17,820.62,292.17Z"/><path class="cls-11" d="M820.62,294H759.21c-.75,0-1.36-.16-1.36-.37s.61-.37,1.36-.37h61.41c.75,0,1.36.16,1.36.37S821.36,294,820.62,294Z"/><path class="cls-11" d="M820.62,295.79H759.21c-.75,0-1.36-.16-1.36-.37s.61-.37,1.36-.37h61.41c.75,0,1.36.16,1.36.37S821.36,295.79,820.62,295.79Z"/><path class="cls-11" d="M820.62,297.6H759.21c-.75,0-1.36-.16-1.36-.37s.61-.37,1.36-.37h61.41c.75,0,1.36.16,1.36.37S821.36,297.6,820.62,297.6Z"/><path class="cls-11" d="M820.62,299.4H759.21c-.75,0-1.36-.16-1.36-.37s.61-.37,1.36-.37h61.41c.75,0,1.36.16,1.36.37S821.36,299.4,820.62,299.4Z"/><path class="cls-12" d="M794.86,259.88H758.65a1,1,0,0,1,0-1.92h36.21a1,1,0,0,1,0,1.92Z"/><rect class="cls-5" x="569.34" y="323.82" width="273.29" height="20.95"/><rect class="cls-6" x="580.69" y="326.38" width="89.03" height="16.8"/><line class="cls-6" x1="580.69" y1="343.18" x2="669.72" y2="326.38"/><line class="cls-6" x1="580.69" y1="326.38" x2="669.72" y2="343.18"/><line class="cls-9" x1="833.79" y1="330.08" x2="819.36" y2="330.08"/><line class="cls-9" x1="833.79" y1="334.29" x2="819.36" y2="334.29"/><line class="cls-9" x1="833.79" y1="338.5" x2="819.36" y2="338.5"/><text class="cls-14" transform="translate(800.26 336.61)">MENU</text><path class="cls-11" d="M820.62,419.45H759.21c-.75,0-1.36-.16-1.36-.37s.61-.37,1.36-.37h61.41c.75,0,1.36.16,1.36.37S821.36,419.45,820.62,419.45Z"/><path class="cls-11" d="M820.62,421.26H759.21c-.75,0-1.36-.16-1.36-.37s.61-.37,1.36-.37h61.41c.75,0,1.36.16,1.36.37S821.36,421.26,820.62,421.26Z"/><path class="cls-11" d="M820.62,423.07H759.21c-.75,0-1.36-.16-1.36-.37s.61-.37,1.36-.37h61.41c.75,0,1.36.16,1.36.37S821.36,423.07,820.62,423.07Z"/><path class="cls-11" d="M820.62,424.87H759.21c-.75,0-1.36-.16-1.36-.37s.61-.37,1.36-.37h61.41c.75,0,1.36.16,1.36.37S821.36,424.87,820.62,424.87Z"/><path class="cls-11" d="M820.62,426.68H759.21c-.75,0-1.36-.16-1.36-.37s.61-.37,1.36-.37h61.41c.75,0,1.36.16,1.36.37S821.36,426.68,820.62,426.68Z"/><path class="cls-11" d="M820.62,428.49H759.21c-.75,0-1.36-.16-1.36-.37s.61-.37,1.36-.37h61.41c.75,0,1.36.16,1.36.37S821.36,428.49,820.62,428.49Z"/><path class="cls-11" d="M820.62,430.3H759.21c-.75,0-1.36-.16-1.36-.37s.61-.37,1.36-.37h61.41c.75,0,1.36.16,1.36.37S821.36,430.3,820.62,430.3Z"/><path class="cls-11" d="M820.62,432.11H759.21c-.75,0-1.36-.16-1.36-.37s.61-.37,1.36-.37h61.41c.75,0,1.36.16,1.36.37S821.36,432.11,820.62,432.11Z"/><path class="cls-11" d="M820.62,433.91H759.21c-.75,0-1.36-.16-1.36-.37s.61-.37,1.36-.37h61.41c.75,0,1.36.16,1.36.37S821.36,433.91,820.62,433.91Z"/><path class="cls-11" d="M820.62,435.72H759.21c-.75,0-1.36-.16-1.36-.37s.61-.37,1.36-.37h61.41c.75,0,1.36.16,1.36.37S821.36,435.72,820.62,435.72Z"/><path class="cls-11" d="M820.62,437.53H759.21c-.75,0-1.36-.16-1.36-.37s.61-.37,1.36-.37h61.41c.75,0,1.36.16,1.36.37S821.36,437.53,820.62,437.53Z"/><path class="cls-11" d="M820.62,439.34H759.21c-.75,0-1.36-.16-1.36-.37s.61-.37,1.36-.37h61.41c.75,0,1.36.16,1.36.37S821.36,439.34,820.62,439.34Z"/><path class="cls-11" d="M820.62,441.15H759.21c-.75,0-1.36-.16-1.36-.37s.61-.37,1.36-.37h61.41c.75,0,1.36.16,1.36.37S821.36,441.15,820.62,441.15Z"/><path class="cls-11" d="M820.62,443H759.21c-.75,0-1.36-.16-1.36-.37s.61-.37,1.36-.37h61.41c.75,0,1.36.16,1.36.37S821.36,443,820.62,443Z"/><path class="cls-11" d="M820.62,444.76H759.21c-.75,0-1.36-.16-1.36-.37s.61-.37,1.36-.37h61.41c.75,0,1.36.16,1.36.37S821.36,444.76,820.62,444.76Z"/><path class="cls-11" d="M820.62,446.57H759.21c-.75,0-1.36-.16-1.36-.37s.61-.37,1.36-.37h61.41c.75,0,1.36.16,1.36.37S821.36,446.57,820.62,446.57Z"/><path class="cls-11" d="M820.62,448.38H759.21c-.75,0-1.36-.16-1.36-.37s.61-.37,1.36-.37h61.41c.75,0,1.36.16,1.36.37S821.36,448.38,820.62,448.38Z"/><path class="cls-11" d="M820.62,450.19H759.21c-.75,0-1.36-.16-1.36-.37s.61-.37,1.36-.37h61.41c.75,0,1.36.16,1.36.37S821.36,450.19,820.62,450.19Z"/><path class="cls-11" d="M820.62,452H759.21c-.75,0-1.36-.16-1.36-.37s.61-.37,1.36-.37h61.41c.75,0,1.36.16,1.36.37S821.36,452,820.62,452Z"/><path class="cls-11" d="M820.62,453.8H759.21c-.75,0-1.36-.16-1.36-.37s.61-.37,1.36-.37h61.41c.75,0,1.36.16,1.36.37S821.36,453.8,820.62,453.8Z"/><path class="cls-12" d="M794.86,414.27H758.65a1,1,0,0,1,0-1.92h36.21a1,1,0,0,1,0,1.92Z"/><rect class="cls-6" x="657" y="344.49" width="87.67" height="67.71"/><line class="cls-6" x1="657" y1="344.49" x2="744.67" y2="412.2"/><line class="cls-6" x1="657" y1="412.2" x2="744.67" y2="344.49"/><rect class="cls-6" x="657" y="412.31" width="87.67" height="67.9"/><line class="cls-6" x1="657" y1="412.31" x2="744.67" y2="480.21"/><line class="cls-6" x1="657" y1="480.21" x2="744.67" y2="412.31"/><rect class="cls-6" x="569.32" y="344.49" width="87.67" height="67.71"/><line class="cls-6" x1="569.32" y1="344.49" x2="657" y2="412.2"/><line class="cls-6" x1="569.32" y1="412.2" x2="657" y2="344.49"/><rect class="cls-6" x="569.32" y="412.31" width="87.67" height="67.9"/><line class="cls-6" x1="569.32" y1="412.31" x2="657" y2="480.21"/><line class="cls-6" x1="569.32" y1="480.21" x2="657" y2="412.31"/><rect class="cls-6" x="735.6" y="352.53" width="53.7" height="51.63"/><line class="cls-6" x1="735.6" y1="352.53" x2="789.3" y2="404.16"/><line class="cls-6" x1="735.6" y1="404.16" x2="789.3" y2="352.53"/></g><g id="Phone-2" data-name="Phone"><rect class="cls-4" x="902.5" y="22.03" width="91.5" height="458.18"/><rect class="cls-6" x="903.11" y="35.12" width="90.89" height="68.43"/><line class="cls-6" x1="903.11" y1="35.12" x2="994" y2="103.55"/><line class="cls-6" x1="903.11" y1="103.55" x2="994" y2="35.12"/><rect class="cls-5" x="903.11" y="22.64" width="90.26" height="12.36"/><rect class="cls-15" x="909.57" y="23.79" width="46.41" height="9.66"/><path class="cls-12" d="M956.76,33.65h-48V23.59h48Zm-46.41-.41H955.2V24H910.35Z"/><line class="cls-15" x1="909.57" y1="23.79" x2="955.98" y2="33.45"/><polygon class="cls-12" points="955.5 33.61 909.09 23.95 910.06 23.63 956.47 33.29 955.5 33.61"/><line class="cls-15" x1="909.57" y1="33.45" x2="955.98" y2="23.79"/><polygon class="cls-12" points="910.06 33.61 909.09 33.29 955.5 23.63 956.47 23.95 910.06 33.61"/><line class="cls-16" x1="985.03" y1="26.46" x2="978.35" y2="26.46"/><line class="cls-16" x1="985.03" y1="28.62" x2="978.35" y2="28.62"/><line class="cls-16" x1="985.03" y1="30.78" x2="978.35" y2="30.78"/><rect class="cls-5" x="903.11" y="182.6" width="90.26" height="12.36"/><rect class="cls-15" x="909.57" y="183.75" width="46.41" height="9.66"/><path class="cls-12" d="M956.76,193.62h-48V183.55h48Zm-46.41-.41H955.2V184H910.35Z"/><line class="cls-15" x1="909.57" y1="183.75" x2="955.98" y2="193.41"/><polygon class="cls-12" points="955.5 193.57 909.09 183.91 910.06 183.59 956.47 193.26 955.5 193.57"/><line class="cls-15" x1="909.57" y1="193.41" x2="955.98" y2="183.75"/><polygon class="cls-12" points="910.06 193.57 909.09 193.26 955.5 183.59 956.47 183.91 910.06 193.57"/><line class="cls-16" x1="985.03" y1="186.42" x2="978.35" y2="186.42"/><line class="cls-16" x1="985.03" y1="188.58" x2="978.35" y2="188.58"/><line class="cls-16" x1="985.03" y1="190.74" x2="978.35" y2="190.74"/><rect class="cls-5" x="903.11" y="329.05" width="90.26" height="12.36"/><rect class="cls-15" x="909.57" y="330.2" width="46.41" height="9.66"/><path class="cls-12" d="M956.76,340.07h-48V330h48Zm-46.41-.41H955.2v-9.26H910.35Z"/><line class="cls-15" x1="909.57" y1="330.2" x2="955.98" y2="339.86"/><polygon class="cls-12" points="955.5 340.02 909.09 330.36 910.06 330.05 956.47 339.71 955.5 340.02"/><line class="cls-15" x1="909.57" y1="339.86" x2="955.98" y2="330.2"/><polygon class="cls-12" points="910.06 340.02 909.09 339.71 955.5 330.05 956.47 330.36 910.06 340.02"/><line class="cls-16" x1="985.03" y1="332.87" x2="978.35" y2="332.87"/><line class="cls-16" x1="985.03" y1="335.03" x2="978.35" y2="335.03"/><line class="cls-16" x1="985.03" y1="337.19" x2="978.35" y2="337.19"/><path class="cls-11" d="M983.43,141.33H911.17c-.88,0-1.59-.16-1.59-.37s.71-.37,1.59-.37h72.26c.88,0,1.59.16,1.59.37S984.31,141.33,983.43,141.33Z"/><path class="cls-11" d="M983.43,143.13H911.17c-.88,0-1.59-.16-1.59-.37s.71-.37,1.59-.37h72.26c.88,0,1.59.16,1.59.37S984.31,143.13,983.43,143.13Z"/><path class="cls-11" d="M983.43,144.94H911.17c-.88,0-1.59-.16-1.59-.37s.71-.37,1.59-.37h72.26c.88,0,1.59.16,1.59.37S984.31,144.94,983.43,144.94Z"/><path class="cls-11" d="M983.43,146.75H911.17c-.88,0-1.59-.16-1.59-.37s.71-.37,1.59-.37h72.26c.88,0,1.59.16,1.59.37S984.31,146.75,983.43,146.75Z"/><path class="cls-11" d="M983.43,148.56H911.17c-.88,0-1.59-.16-1.59-.37s.71-.37,1.59-.37h72.26c.88,0,1.59.16,1.59.37S984.31,148.56,983.43,148.56Z"/><path class="cls-11" d="M983.43,150.37H911.17c-.88,0-1.59-.16-1.59-.37s.71-.37,1.59-.37h72.26c.88,0,1.59.16,1.59.37S984.31,150.37,983.43,150.37Z"/><path class="cls-11" d="M983.43,152.17H911.17c-.88,0-1.59-.16-1.59-.37s.71-.37,1.59-.37h72.26c.88,0,1.59.16,1.59.37S984.31,152.17,983.43,152.17Z"/><path class="cls-11" d="M983.43,154H911.17c-.88,0-1.59-.16-1.59-.37s.71-.37,1.59-.37h72.26c.88,0,1.59.16,1.59.37S984.31,154,983.43,154Z"/><path class="cls-11" d="M983.43,155.79H911.17c-.88,0-1.59-.16-1.59-.37s.71-.37,1.59-.37h72.26c.88,0,1.59.16,1.59.37S984.31,155.79,983.43,155.79Z"/><path class="cls-11" d="M983.43,157.6H911.17c-.88,0-1.59-.16-1.59-.37s.71-.37,1.59-.37h72.26c.88,0,1.59.16,1.59.37S984.31,157.6,983.43,157.6Z"/><path class="cls-11" d="M983.43,159.41H911.17c-.88,0-1.59-.16-1.59-.37s.71-.37,1.59-.37h72.26c.88,0,1.59.16,1.59.37S984.31,159.41,983.43,159.41Z"/><path class="cls-11" d="M983.43,161.21H911.17c-.88,0-1.59-.16-1.59-.37s.71-.37,1.59-.37h72.26c.88,0,1.59.16,1.59.37S984.31,161.21,983.43,161.21Z"/><path class="cls-11" d="M983.43,163H911.17c-.88,0-1.59-.16-1.59-.37s.71-.37,1.59-.37h72.26c.88,0,1.59.16,1.59.37S984.31,163,983.43,163Z"/><path class="cls-11" d="M983.43,164.83H911.17c-.88,0-1.59-.16-1.59-.37s.71-.37,1.59-.37h72.26c.88,0,1.59.16,1.59.37S984.31,164.83,983.43,164.83Z"/><path class="cls-11" d="M983.43,166.64H911.17c-.88,0-1.59-.16-1.59-.37s.71-.37,1.59-.37h72.26c.88,0,1.59.16,1.59.37S984.31,166.64,983.43,166.64Z"/><path class="cls-11" d="M983.43,168.45H911.17c-.88,0-1.59-.16-1.59-.37s.71-.37,1.59-.37h72.26c.88,0,1.59.16,1.59.37S984.31,168.45,983.43,168.45Z"/><path class="cls-11" d="M983.43,170.25H911.17c-.88,0-1.59-.16-1.59-.37s.71-.37,1.59-.37h72.26c.88,0,1.59.16,1.59.37S984.31,170.25,983.43,170.25Z"/><path class="cls-11" d="M983.43,172.06H911.17c-.88,0-1.59-.16-1.59-.37s.71-.37,1.59-.37h72.26c.88,0,1.59.16,1.59.37S984.31,172.06,983.43,172.06Z"/><path class="cls-11" d="M983.43,173.87H911.17c-.88,0-1.59-.16-1.59-.37s.71-.37,1.59-.37h72.26c.88,0,1.59.16,1.59.37S984.31,173.87,983.43,173.87Z"/><path class="cls-11" d="M983.43,175.68H911.17c-.88,0-1.59-.16-1.59-.37s.71-.37,1.59-.37h72.26c.88,0,1.59.16,1.59.37S984.31,175.68,983.43,175.68Z"/><path class="cls-12" d="M946.59,136.74H910.37a1,1,0,0,1,0-1.92h36.21a1,1,0,0,1,0,1.92Z"/><rect class="cls-6" x="909.57" y="95.6" width="29.89" height="28.74"/><line class="cls-6" x1="909.57" y1="95.6" x2="939.46" y2="124.34"/><line class="cls-6" x1="909.57" y1="124.34" x2="939.46" y2="95.6"/><rect class="cls-6" x="937.6" y="160.17" width="21.28" height="90.87" transform="translate(1153.84 -742.63) rotate(90)"/><line class="cls-6" x1="993.67" y1="194.96" x2="902.8" y2="216.24"/><line class="cls-6" x1="902.8" y1="194.96" x2="993.67" y2="216.24"/><rect class="cls-6" x="939.14" y="192.01" width="18.2" height="77.72" transform="translate(1179.1 -717.37) rotate(90)"/><line class="cls-6" x1="987.1" y1="221.77" x2="909.38" y2="239.96"/><line class="cls-6" x1="909.38" y1="221.77" x2="987.1" y2="239.96"/><rect class="cls-6" x="939.14" y="215.73" width="18.2" height="77.72" transform="translate(1202.83 -693.65) rotate(90)"/><line class="cls-6" x1="987.1" y1="245.49" x2="909.38" y2="263.69"/><line class="cls-6" x1="909.38" y1="245.49" x2="987.1" y2="263.69"/><path class="cls-11" d="M985.45,285.48H911c-.91,0-1.64-.16-1.64-.37s.74-.37,1.64-.37h74.43c.91,0,1.64.16,1.64.37S986.36,285.48,985.45,285.48Z"/><path class="cls-11" d="M985.45,287.29H911c-.91,0-1.64-.16-1.64-.37s.74-.37,1.64-.37h74.43c.91,0,1.64.16,1.64.37S986.36,287.29,985.45,287.29Z"/><path class="cls-11" d="M985.45,289.1H911c-.91,0-1.64-.16-1.64-.37s.74-.37,1.64-.37h74.43c.91,0,1.64.16,1.64.37S986.36,289.1,985.45,289.1Z"/><path class="cls-11" d="M985.45,290.91H911c-.91,0-1.64-.16-1.64-.37s.74-.37,1.64-.37h74.43c.91,0,1.64.16,1.64.37S986.36,290.91,985.45,290.91Z"/><path class="cls-11" d="M985.45,292.71H911c-.91,0-1.64-.16-1.64-.37s.74-.37,1.64-.37h74.43c.91,0,1.64.16,1.64.37S986.36,292.71,985.45,292.71Z"/><path class="cls-11" d="M985.45,294.52H911c-.91,0-1.64-.16-1.64-.37s.74-.37,1.64-.37h74.43c.91,0,1.64.16,1.64.37S986.36,294.52,985.45,294.52Z"/><path class="cls-11" d="M985.45,296.33H911c-.91,0-1.64-.16-1.64-.37s.74-.37,1.64-.37h74.43c.91,0,1.64.16,1.64.37S986.36,296.33,985.45,296.33Z"/><path class="cls-11" d="M985.45,298.14H911c-.91,0-1.64-.16-1.64-.37s.74-.37,1.64-.37h74.43c.91,0,1.64.16,1.64.37S986.36,298.14,985.45,298.14Z"/><path class="cls-11" d="M985.45,299.95H911c-.91,0-1.64-.16-1.64-.37s.74-.37,1.64-.37h74.43c.91,0,1.64.16,1.64.37S986.36,299.95,985.45,299.95Z"/><path class="cls-11" d="M985.45,301.75H911c-.91,0-1.64-.16-1.64-.37s.74-.37,1.64-.37h74.43c.91,0,1.64.16,1.64.37S986.36,301.75,985.45,301.75Z"/><path class="cls-11" d="M985.45,303.56H911c-.91,0-1.64-.16-1.64-.37s.74-.37,1.64-.37h74.43c.91,0,1.64.16,1.64.37S986.36,303.56,985.45,303.56Z"/><path class="cls-11" d="M985.45,305.37H911c-.91,0-1.64-.16-1.64-.37s.74-.37,1.64-.37h74.43c.91,0,1.64.16,1.64.37S986.36,305.37,985.45,305.37Z"/><path class="cls-11" d="M985.45,307.18H911c-.91,0-1.64-.16-1.64-.37s.74-.37,1.64-.37h74.43c.91,0,1.64.16,1.64.37S986.36,307.18,985.45,307.18Z"/><path class="cls-11" d="M985.45,309H911c-.91,0-1.64-.16-1.64-.37s.74-.37,1.64-.37h74.43c.91,0,1.64.16,1.64.37S986.36,309,985.45,309Z"/><path class="cls-11" d="M985.45,310.79H911c-.91,0-1.64-.16-1.64-.37s.74-.37,1.64-.37h74.43c.91,0,1.64.16,1.64.37S986.36,310.79,985.45,310.79Z"/><path class="cls-11" d="M985.45,312.6H911c-.91,0-1.64-.16-1.64-.37s.74-.37,1.64-.37h74.43c.91,0,1.64.16,1.64.37S986.36,312.6,985.45,312.6Z"/><path class="cls-11" d="M985.45,314.41H911c-.91,0-1.64-.16-1.64-.37s.74-.37,1.64-.37h74.43c.91,0,1.64.16,1.64.37S986.36,314.41,985.45,314.41Z"/><path class="cls-11" d="M985.45,316.22H911c-.91,0-1.64-.16-1.64-.37s.74-.37,1.64-.37h74.43c.91,0,1.64.16,1.64.37S986.36,316.22,985.45,316.22Z"/><path class="cls-11" d="M985.45,318H911c-.91,0-1.64-.16-1.64-.37s.74-.37,1.64-.37h74.43c.91,0,1.64.16,1.64.37S986.36,318,985.45,318Z"/><path class="cls-11" d="M985.45,319.83H911c-.91,0-1.64-.16-1.64-.37s.74-.37,1.64-.37h74.43c.91,0,1.64.16,1.64.37S986.36,319.83,985.45,319.83Z"/><path class="cls-12" d="M947.5,280.89H910.2a1,1,0,0,1,0-1.92h37.3a1,1,0,0,1,0,1.92Z"/><rect class="cls-6" x="948.63" y="341.41" width="45.83" height="35.39"/><line class="cls-6" x1="948.63" y1="341.41" x2="994.45" y2="376.81"/><line class="cls-6" x1="948.63" y1="376.81" x2="994.45" y2="341.41"/><rect class="cls-6" x="948.63" y="376.86" width="45.83" height="35.49"/><line class="cls-6" x1="948.63" y1="376.86" x2="994.45" y2="412.35"/><line class="cls-6" x1="948.63" y1="412.35" x2="994.45" y2="376.86"/><rect class="cls-6" x="902.8" y="341.41" width="45.83" height="35.39"/><line class="cls-6" x1="902.8" y1="341.41" x2="948.63" y2="376.81"/><line class="cls-6" x1="902.8" y1="376.81" x2="948.63" y2="341.41"/><rect class="cls-6" x="902.8" y="376.86" width="45.83" height="35.49"/><line class="cls-6" x1="902.8" y1="376.86" x2="948.63" y2="412.35"/><line class="cls-6" x1="902.8" y1="412.35" x2="948.63" y2="376.86"/><rect class="cls-6" x="909.57" y="245.51" width="29.89" height="28.74"/><line class="cls-6" x1="909.57" y1="245.51" x2="939.46" y2="274.24"/><line class="cls-6" x1="909.57" y1="274.24" x2="939.46" y2="245.51"/><path class="cls-11" d="M985.45,438.36H911c-.91,0-1.64-.16-1.64-.37s.74-.37,1.64-.37h74.43c.91,0,1.64.16,1.64.37S986.36,438.36,985.45,438.36Z"/><path class="cls-11" d="M985.45,440.17H911c-.91,0-1.64-.16-1.64-.37s.74-.37,1.64-.37h74.43c.91,0,1.64.16,1.64.37S986.36,440.17,985.45,440.17Z"/><path class="cls-11" d="M985.45,442H911c-.91,0-1.64-.16-1.64-.37s.74-.37,1.64-.37h74.43c.91,0,1.64.16,1.64.37S986.36,442,985.45,442Z"/><path class="cls-11" d="M985.45,443.78H911c-.91,0-1.64-.16-1.64-.37s.74-.37,1.64-.37h74.43c.91,0,1.64.16,1.64.37S986.36,443.78,985.45,443.78Z"/><path class="cls-11" d="M985.45,445.59H911c-.91,0-1.64-.16-1.64-.37s.74-.37,1.64-.37h74.43c.91,0,1.64.16,1.64.37S986.36,445.59,985.45,445.59Z"/><path class="cls-11" d="M985.45,447.4H911c-.91,0-1.64-.16-1.64-.37s.74-.37,1.64-.37h74.43c.91,0,1.64.16,1.64.37S986.36,447.4,985.45,447.4Z"/><path class="cls-11" d="M985.45,449.21H911c-.91,0-1.64-.16-1.64-.37s.74-.37,1.64-.37h74.43c.91,0,1.64.16,1.64.37S986.36,449.21,985.45,449.21Z"/><path class="cls-11" d="M985.45,451H911c-.91,0-1.64-.16-1.64-.37s.74-.37,1.64-.37h74.43c.91,0,1.64.16,1.64.37S986.36,451,985.45,451Z"/><path class="cls-11" d="M985.45,452.82H911c-.91,0-1.64-.16-1.64-.37s.74-.37,1.64-.37h74.43c.91,0,1.64.16,1.64.37S986.36,452.82,985.45,452.82Z"/><path class="cls-11" d="M985.45,454.63H911c-.91,0-1.64-.16-1.64-.37s.74-.37,1.64-.37h74.43c.91,0,1.64.16,1.64.37S986.36,454.63,985.45,454.63Z"/><path class="cls-11" d="M985.45,456.44H911c-.91,0-1.64-.16-1.64-.37s.74-.37,1.64-.37h74.43c.91,0,1.64.16,1.64.37S986.36,456.44,985.45,456.44Z"/><path class="cls-11" d="M985.45,458.25H911c-.91,0-1.64-.16-1.64-.37s.74-.37,1.64-.37h74.43c.91,0,1.64.16,1.64.37S986.36,458.25,985.45,458.25Z"/><path class="cls-11" d="M985.45,460.06H911c-.91,0-1.64-.16-1.64-.37s.74-.37,1.64-.37h74.43c.91,0,1.64.16,1.64.37S986.36,460.06,985.45,460.06Z"/><path class="cls-11" d="M985.45,461.86H911c-.91,0-1.64-.16-1.64-.37s.74-.37,1.64-.37h74.43c.91,0,1.64.16,1.64.37S986.36,461.86,985.45,461.86Z"/><path class="cls-11" d="M985.45,463.67H911c-.91,0-1.64-.16-1.64-.37s.74-.37,1.64-.37h74.43c.91,0,1.64.16,1.64.37S986.36,463.67,985.45,463.67Z"/><path class="cls-11" d="M985.45,465.48H911c-.91,0-1.64-.16-1.64-.37s.74-.37,1.64-.37h74.43c.91,0,1.64.16,1.64.37S986.36,465.48,985.45,465.48Z"/><path class="cls-11" d="M985.45,467.29H911c-.91,0-1.64-.16-1.64-.37s.74-.37,1.64-.37h74.43c.91,0,1.64.16,1.64.37S986.36,467.29,985.45,467.29Z"/><path class="cls-11" d="M985.45,469.1H911c-.91,0-1.64-.16-1.64-.37s.74-.37,1.64-.37h74.43c.91,0,1.64.16,1.64.37S986.36,469.1,985.45,469.1Z"/><path class="cls-11" d="M985.45,470.9H911c-.91,0-1.64-.16-1.64-.37s.74-.37,1.64-.37h74.43c.91,0,1.64.16,1.64.37S986.36,470.9,985.45,470.9Z"/><path class="cls-11" d="M985.45,472.71H911c-.91,0-1.64-.16-1.64-.37s.74-.37,1.64-.37h74.43c.91,0,1.64.16,1.64.37S986.36,472.71,985.45,472.71Z"/><path class="cls-12" d="M947.5,433.77H910.2a1,1,0,0,1,0-1.92h37.3a1,1,0,0,1,0,1.92Z"/><rect class="cls-6" x="909.57" y="398.39" width="29.89" height="28.74"/><line class="cls-6" x1="909.57" y1="398.39" x2="939.46" y2="427.12"/><line class="cls-6" x1="909.57" y1="427.12" x2="939.46" y2="398.39"/></g></g></svg>