<svg xmlns="http://www.w3.org/2000/svg" viewBox="0 0 998.86 559.61"><defs><style>.cls-1{fill:#ffc424;}</style></defs><title>title_table</title><g id="Calque_2" data-name="Calque 2"><g id="Calque_1-2" data-name="Calque 1"><path class="cls-1" d="M835.75,495.32h-127v-3.74l11.73-3.2c10.94-2.93,12.55-4.53,12.55-27.48V349.64c0-23-1.61-24.55-12.55-27.48L708.75,319v-3.74h81.11V319l-15.75,3.2c-11.2,2.13-13.87,4.53-13.87,27.48V456.9c0,25.08,3.74,27.48,14.68,27.48h16.8c27.48,0,36.29-3.74,40.56-15.21l6.41-17.61,5.59,1.06Z"/><path class="cls-1" d="M990.85,495.32H861.19v-3.74l11.73-3.2c10.94-2.93,12.55-4.53,12.55-27.48V349.64c0-23-1.61-24.55-12.55-27.48L861.19,319v-3.74H987.11V350.7h-4.27l-3.2-12c-2.66-9.87-8.54-12.55-38.42-12.55H912.67v68.57H941c24.54,0,28.27-.8,30.95-10.13l2.93-9.87h4V427h-4l-3.2-11.21c-2.66-9.33-6.14-10.13-30.68-10.13H912.67V456.9c0,25.08,3.74,27.48,14.68,27.48h20.54c27.48,0,35.23-4.27,40.56-15.21l5.87-12.27,4.54,1.06Z"/><path class="cls-1" d="M466.37,167c-5.88,2.11-7.24,3.77-13.57,19.14L418.72,267.9h-7.24l-32.57-85c-4.82-12.52-6.33-13.72-12.21-15.83l-4.22-1.51v-2.11h42.82v2.11l-6.64,1.81c-6.18,1.66-7.54,3.47-3.17,15.53l19.3,53.37a129,129,0,0,1,4.08,13.12h.3c.45-2.11,2.26-6.64,4.82-13.12l18.39-46.13c7.39-18.4,6-20.81-.75-22.77l-6.33-1.81v-2.11h35.28v2.11Z"/><path class="cls-1" d="M525.23,267.59c-30.76,0-52.47-18.09-52.47-53.07,0-33.47,26.38-54,52.47-54,28,0,52.62,16.59,52.62,54C577.84,245.28,553.72,267.59,525.23,267.59Zm-.15-101.16c-16.28,0-34.83,12.66-34.83,48.09,0,34.23,17.19,47,35,47s35-12.81,35-47C560.2,179.85,542.41,166.43,525.07,166.43Z"/><path class="cls-1" d="M667.77,187.23l-1.81-9c-1.21-5.73-4.82-8.59-21.71-8.59h-10.7v76.14c0,13,.9,14.17,7.08,15.53l8.15,1.81v2.11H602.93v-2.11l8.14-1.81c6.18-1.36,7.08-2.56,7.08-15.53V169.59h-10.7c-16.88,0-20.5,2.87-21.7,8.59l-1.81,9h-2.57V163.41h89v23.82Z"/><path class="cls-1" d="M750.43,265.34c-9.5-12.21-32.27-40.11-41.62-52.92h4.68c12.82,0,25.33-5,25.33-21.41,0-17.94-10.7-22.31-25.78-22.31H706.1v77c0,13,.91,13.87,7.09,15.53l6.63,1.81v2.11H677v-2.11l6.63-1.81c6.18-1.66,7.09-2.56,7.09-15.53V182.86c0-13-.91-13.87-7.09-15.53L677,165.52v-2.11h41.61c17.34,0,36.94,3.17,36.94,24.88,0,14.77-13.27,23.07-27,26.23,8,9.95,17.64,22.16,25.48,31.21,8.59,10,12.52,14.33,16.59,15.68l5,1.66v2.11Z"/><path class="cls-1" d="M854.22,265.18H780.95v-2.11l6.63-1.81c6.18-1.66,7.09-2.56,7.09-15.53V182.86c0-13-.91-13.87-7.09-15.53l-6.63-1.81v-2.11h71.16v20.05h-2.41l-1.81-6.78c-1.5-5.58-4.82-7.09-21.71-7.09H810v38.75h16c13.87,0,16-.45,17.49-5.73l1.66-5.58h2.26v29.55h-2.26l-1.81-6.33c-1.5-5.27-3.47-5.73-17.33-5.73H810v28.95c0,14.17,2.11,15.53,8.29,15.53h11.61c15.53,0,19.91-2.41,22.92-8.59l3.31-6.94,2.57.6Z"/><path class="cls-1" d="M452.15,495.32v-3.74l11.74-3.2c10.94-2.93,13.6-6.14,5.6-27.48l-11.21-30.41H391.86l-6.94,17.61c-12.81,32.55-10.67,36.82,1.34,40.29l11.21,3.2v3.74h-61.9v-3.74l7.47-2.67c10.41-3.73,12.54-6.67,24-33.88l60.56-144.61h13.08l58.16,150.48c8.54,22.15,11.21,24.29,21.62,28l7.47,2.67v3.74ZM434.27,364.85s-6.67-18.67-7.46-22.94h-.54c-.79,3.73-8.27,22.94-8.27,22.94l-21.62,54.43h57.9Z"/><path class="cls-1" d="M608.34,495.32h-71v-3.74l11.73-3.2c10.94-2.93,12.55-4.53,12.55-27.48V349.64c0-23-1.61-24.55-12.55-27.48L537.38,319v-3.74h71.5c22.68,0,66.43,0,66.43,38.69,0,23.21-26.41,37.36-38.15,40.29v1.06c23.47.53,46.69,16.54,46.69,44.56C683.85,480.64,644.63,495.32,608.34,495.32Zm-7.2-171H588.87V394.2h16c11.47,0,41.62-3.2,41.62-35.76C646.5,326.69,620.09,324.29,601.14,324.29ZM607,403.8H588.87v54.43c0,25.08,3.74,27.48,14.68,27.48h4c22.68,0,45.36-9.87,45.36-41.35C652.9,411,630.49,403.8,607,403.8Z"/><path class="cls-1" d="M475,131,465.1,81.24C458.47,49.74,438.57,34,345.71,34H286.85V452.66c0,71.3,5,77.93,39,85.39L370.59,548v11.61h-252V548l44.77-9.95c34-7.46,39-14.09,39-85.39V34H143.43C50.57,34,30.68,49.74,24,81.24L14.09,131H0V0H489.14V131Z"/></g></g></svg>