<svg xmlns="http://www.w3.org/2000/svg" viewBox="0 0 1567.74 1226.29"><defs><style>.cls-1{fill:#ffc424;}</style></defs><title>title_carte</title><g id="Calque_2" data-name="Calque 2"><g id="Calque_1-2" data-name="Calque 1"><path class="cls-1" d="M539.14,201h-134a2.23,2.23,0,0,1-2.23-2.23v-.12a2.23,2.23,0,0,1,1.65-2.16l11.11-3c11.89-3.19,13.63-4.93,13.63-29.87V42.63c0-24.94-1.74-26.68-13.63-29.87l-11.11-3a2.23,2.23,0,0,1-1.65-2.16V7.45a2.23,2.23,0,0,1,2.23-2.23h83.69a2.23,2.23,0,0,1,2.23,2.23h0a2.23,2.23,0,0,1-1.79,2.19L474,12.76c-12.18,2.32-15.08,4.93-15.08,29.87V159.21c0,27.26,4.06,29.87,16,29.87h18.27c29.87,0,39.44-4.06,44.08-16.53l6.31-17.35a2.23,2.23,0,0,1,2.52-1.43l2,.38a2.23,2.23,0,0,1,1.77,2.63l-8.48,42.39A2.23,2.23,0,0,1,539.14,201Z"/><path class="cls-1" d="M686.28,198.74v-.12a2.23,2.23,0,0,1,1.65-2.16l11.11-3c11.89-3.19,14.79-6.67,6.09-29.87L693.49,132a2.23,2.23,0,0,0-2.1-1.46H622.26a2.23,2.23,0,0,0-2.08,1.42l-7,17.73c-13.92,35.38-11.6,40,1.45,43.79l10.56,3a2.23,2.23,0,0,1,1.62,2.15v.14a2.23,2.23,0,0,1-2.23,2.23H561.78a2.23,2.23,0,0,1-2.23-2.23v-.25a2.23,2.23,0,0,1,1.48-2.1l6.64-2.37c11.31-4.06,13.63-7.25,26.1-36.83L659,1.37A2.23,2.23,0,0,1,661.09,0h11.19a2.23,2.23,0,0,1,2.08,1.43L737,163.56c9.28,24.07,12.18,26.39,23.49,30.45l6.64,2.37a2.23,2.23,0,0,1,1.48,2.1v.25a2.23,2.23,0,0,1-2.23,2.23H688.52A2.23,2.23,0,0,1,686.28,198.74ZM666.85,59.16s-7.25-20.3-8.12-24.94h-.58c-.87,4.06-9,24.94-9,24.94l-22.28,56.1a2.23,2.23,0,0,0,2.08,3.06H685.4a2.23,2.23,0,0,0,2.1-3Z"/><path class="cls-1" d="M501.82,936.12V933a2.23,2.23,0,0,1,1.65-2.16l20.63-5.63c20.76-5.57,25.82-11.64,10.63-52.15L514,816.79a2.23,2.23,0,0,0-2.1-1.46h-123a2.23,2.23,0,0,0-2.08,1.42l-12.6,32c-24.3,61.77-20.25,69.87,2.53,76.45l19.64,5.61A2.23,2.23,0,0,1,398,933v3.17a2.23,2.23,0,0,1-2.23,2.23h-113a2.23,2.23,0,0,1-2.23-2.23v-3.28a2.23,2.23,0,0,1,1.48-2.1l12.69-4.53c19.74-7.09,23.8-12.66,45.56-64.3l114.36-273a2.23,2.23,0,0,1,2.06-1.37h21.79a2.23,2.23,0,0,1,2.08,1.43L590.42,873c16.2,42,21.26,46.07,41,53.16l12.69,4.53a2.23,2.23,0,0,1,1.48,2.1v3.28a2.23,2.23,0,0,1-2.23,2.23H504.06A2.23,2.23,0,0,1,501.82,936.12ZM467.9,690.78s-12.66-35.44-14.18-43.54h-1c-1.52,7.09-15.69,43.54-15.69,43.54L397.22,791a2.23,2.23,0,0,0,2.08,3.06H502.67a2.23,2.23,0,0,0,2.1-3Z"/><path class="cls-1" d="M909.25,938C877.84,897.68,805.39,808.83,772.79,764.7a2.23,2.23,0,0,1,1.81-3.55h11.28c43,0,85.06-16.71,85.06-71.89,0-60.25-35.95-74.93-86.58-74.93H763.3a2.23,2.23,0,0,0-2.23,2.23V873c0,43.54,3,46.58,23.8,52.15l20.63,5.63a2.23,2.23,0,0,1,1.65,2.16v3.15a2.23,2.23,0,0,1-2.23,2.23H665.59a2.23,2.23,0,0,1-2.23-2.23V933a2.23,2.23,0,0,1,1.65-2.16l20.63-5.63c20.76-5.57,23.8-8.61,23.8-52.15V661.92c0-43.54-3-46.58-23.8-52.15L665,604.14a2.23,2.23,0,0,1-1.65-2.16v-3.15a2.23,2.23,0,0,1,2.23-2.23h137.5c58.23,0,124,10.63,124,83.54,0,48.39-42.38,76.07-87.21,87.28A2.22,2.22,0,0,0,838.7,771c26.39,32.9,57.76,72.52,83.37,102.07,28.86,33.41,42,48.1,55.69,52.65l15.18,5.06a2.23,2.23,0,0,1,1.53,2.12v3.26a2.23,2.23,0,0,1-2.22,2.23l-81.23.49A2.2,2.2,0,0,1,909.25,938Z"/><path class="cls-1" d="M1277.83,676.6a2.23,2.23,0,0,1-2.19-1.8l-5.72-28.58c-4.05-19.24-16.2-28.86-72.91-28.86H1163.3a2.23,2.23,0,0,0-2.23,2.23V873c0,43.54,3,47.59,23.8,52.15l25.59,5.69a2.23,2.23,0,0,1,1.75,2.18v3.06a2.23,2.23,0,0,1-2.23,2.23H1060.52a2.23,2.23,0,0,1-2.23-2.23v-3.06a2.23,2.23,0,0,1,1.75-2.18l25.59-5.69c20.76-4.56,23.79-8.61,23.79-52.15V619.6a2.23,2.23,0,0,0-2.23-2.23h-33.71c-56.7,0-68.86,9.62-72.9,28.86l-5.72,28.58a2.23,2.23,0,0,1-2.19,1.8h-4.54a2.23,2.23,0,0,1-2.23-2.23V598.84a2.23,2.23,0,0,1,2.23-2.23h294.25a2.23,2.23,0,0,1,2.23,2.23v75.53a2.23,2.23,0,0,1-2.23,2.23Z"/><path class="cls-1" d="M1551.16,938.36h-242a2.23,2.23,0,0,1-2.23-2.23V933a2.23,2.23,0,0,1,1.65-2.16l20.63-5.63c20.76-5.57,23.8-8.61,23.8-52.15V661.92c0-43.54-3-46.58-23.8-52.15l-20.63-5.63a2.23,2.23,0,0,1-1.65-2.16v-3.15a2.23,2.23,0,0,1,2.23-2.23h234.5a2.23,2.23,0,0,1,2.23,2.23v62.87a2.23,2.23,0,0,1-2.23,2.23h-4.15a2.23,2.23,0,0,1-2.16-1.66l-5.63-21.12c-5.06-18.73-16.2-23.8-72.9-23.8h-51.94a2.23,2.23,0,0,0-2.23,2.23V745.25a2.23,2.23,0,0,0,2.23,2.23h51.43c46.58,0,53.67-1.52,58.73-19.24l5.1-17.14a2.23,2.23,0,0,1,2.14-1.6h3.69a2.23,2.23,0,0,1,2.23,2.23v94.77a2.23,2.23,0,0,1-2.23,2.23h-3.67a2.23,2.23,0,0,1-2.15-1.62l-5.62-19.64c-5.06-17.72-11.64-19.24-58.22-19.24h-51.43a2.23,2.23,0,0,0-2.23,2.23v95c0,47.59,7.09,52.15,27.85,52.15h39c52.15,0,66.83-8.1,77-28.86l10.36-21.67a2.23,2.23,0,0,1,2.53-1.21L1566,867a2.23,2.23,0,0,1,1.67,2.64l-14.35,67A2.23,2.23,0,0,1,1551.16,938.36Z"/><path class="cls-1" d="M773,1180.1c-46.19,17.66-157.6,46.19-273.08,46.19C209.23,1226.29,0,1047,0,748.06S201.08,264.4,487.74,264.4c115.48,0,206.51,19,275.8,43.48v206.5H739.08L721.42,438.3c-19-84.24-142.65-116.84-231-116.84-232.32,0-330.14,191.56-330.14,400.79,0,248.63,126.35,448.34,372.26,448.34,88.31,0,188.85-35.32,224.17-114.12L788,987.17,812.45,994Z"/></g></g></svg>