<svg xmlns="http://www.w3.org/2000/svg" viewBox="0 0 1874.73 181.5"><title>logo</title><g id="Calque_2" data-name="Calque 2"><g id="Calque_1-2" data-name="Calque 1"><polygon id="Fill-63" points="3.33 10.32 120.89 10.32 124.22 64.61 122.55 64.61 104.9 15.65 75.6 13.99 75.6 172.18 93.91 175.17 93.91 177.17 30.64 177.17 30.64 175.17 49.29 172.18 49.29 13.99 19.65 15.65 2 64.61 0 64.61 3.33 10.32"/><path id="Fill-65" d="M266.42,93.91c0-49.29-10.32-84.59-41-84.59-28.31,0-40.3,34-40.3,83.92,0,49.29,10,84.59,41,84.59,28.31.33,40.3-34,40.3-83.92m28,0c0,50-27.31,87.59-67.94,87.59-42.29,0-69.6-37-69.6-88.25,0-50,28.64-87.59,68.94-87.59,41.3.33,68.6,36.3,68.6,88.25"/><path id="Fill-67" d="M349,107.23,350.68,15l-18.32-3V10H396v2l-18.65,3-2,93.91c-1,41.63,13.32,64.27,39,64.27,24.31,0,41-21.65,40-64.61L451.59,15l-29-2.66V10h54v2.33L458.25,15l1.33,93.91c.33,47-17.32,72.27-51.62,72.27-36.63.33-59.94-25.31-58.95-73.93"/><path id="Fill-69" d="M599.45,55.62c0-19.32-8-40-33-41L550.83,14V93.91l15.65-.33c25.31-1,33-18,33-38ZM505.87,177.17v-2l18.32-3V15.32l-18.32-3v-2h56.95c43,0,63.94,18.65,63.94,44.63,0,22.31-13.65,38.63-48.29,41.3v.33l25.64,15.32,23.31,38c9,15,14.32,23.31,27.31,25.31v2c-31.64,5-44-4.33-54.95-26L572.47,97.91l-21.65-.67v74.93l18.65,3v2H505.87Z"/><path id="Fill-71" d="M744.32,40l-9-.33V143.2l9.32-.33c21.31-1.33,31.64-22.65,31.64-51.62.33-28.64-10-50-32-51.29M744,146.87H699.36V144.2l14.65-2V40.3l-14.65-2V35.63h44c32.3,0,56.28,19.65,56.28,55.62,0,35.63-24,55.62-55.62,55.62"/><path id="Fill-73" d="M815.58,88.25c11-15.32,18-32.64,18-47.62l-13.65-2V36.3h33.64c-4.66,21.31-17,37.3-35.63,53.62Z"/><path id="Fill-75" d="M954.46,107.9l-24-71.27-24.64,70.93,25,18Zm-88.92,69.27v-2l11.66-3L940.47,0h3.33l60.28,172.18,11.66,3v2H958.12v-2l18.32-3-20-60.28-25,22-26-22.65-21.31,60.94,26.64,3v2Z"/><path id="Fill-77" d="M1137.62,55.62c0-19.32-8-40-33-41L1089,14V93.91l15.65-.33c25.31-1,33-18,33-38ZM1044,177.17v-2l18.32-3V15.32l-18.32-3v-2H1101c43,0,63.94,18.65,63.94,44.63,0,22.31-13.65,38.63-48.29,41.3v.33l25.64,15.32,23.31,38c9,15,14.32,23.31,27.31,25.31v2c-31.64,5-44-4.33-54.95-26l-27.31-53.28L1089,97.24v74.93l18.65,3v2H1044Z"/><path id="Fill-79" d="M1347.76,181.5h-2l-15.32-7.66a93.13,93.13,0,0,1-36.3,7.66c-50,0-73.93-40.3-73.93-88.25,0-50,27.31-87.59,76.6-87.59a80.78,80.78,0,0,1,35,8l11.32-11,4,55.28h-1.67l-18.32-39.3c-8-5.66-18.65-9-31-9-34,0-47,35.3-47,83.59,0,43.63,14,83.92,48,83.92a63,63,0,0,0,24-5V107.23l-24.64-3v-2h66.61v2l-15.32,3Z"/><polygon id="Fill-81" points="1518.61 177.17 1402.38 177.17 1402.38 175.17 1420.69 172.18 1420.69 15.32 1402.38 12.32 1402.38 10.32 1515.28 10.32 1518.27 57.95 1516.94 57.95 1498.96 15.98 1447.34 13.99 1447.34 90.25 1489.3 89.25 1499.29 65.94 1500.95 65.94 1500.95 118.89 1499.62 118.89 1489.3 94.25 1447.34 93.91 1447.34 173.51 1502.95 171.51 1522.6 121.56 1524.27 121.56 1518.61 177.17"/><polygon id="Fill-83" points="1625.17 177.17 1568.23 177.17 1568.23 175.17 1586.88 172.18 1586.88 17.65 1568.23 12.32 1568.23 10.32 1613.52 10.32 1696.78 151.19 1694.44 15.32 1663.14 12.32 1663.14 10.32 1719.42 10.32 1719.42 12.32 1700.77 15.32 1700.77 157.52 1711.1 175.17 1711.1 177.17 1682.79 177.17 1591.2 24.31 1593.2 172.18 1625.17 175.17 1625.17 177.17"/><g id="Group-87"><polygon id="Fill-85" points="1753.85 10.38 1871.4 10.38 1874.73 64.66 1873.07 64.66 1855.42 15.7 1826.11 14.04 1826.11 172.23 1844.76 175.22 1844.76 177.22 1781.15 177.22 1781.15 175.22 1799.8 172.23 1799.8 14.04 1770.5 15.7 1752.51 64.66 1750.52 64.66 1753.85 10.38"/></g></g></g></svg>