<svg xmlns="http://www.w3.org/2000/svg" viewBox="0 0 35 36.15"><defs><style>.cls-1{fill:#a3a3a3;}</style></defs><title>quote-2</title><g id="Calque_2" data-name="Calque 2"><g id="Calque_1-2" data-name="Calque 1"><path class="cls-1" d="M1.8,1.8A5.78,5.78,0,0,0,0,6.2,5.2,5.2,0,0,0,1.5,10,4.52,4.52,0,0,0,5,11.5l1.7-.2L8.4,11q2.05,0,2.05,4.2A21.32,21.32,0,0,1,9.1,22.7a25.39,25.39,0,0,1-3.75,7q-1.7,2.45-2.65,3.7L2,34.75q0,1.4,1.75,1.4.8,0,2.65-2.7Q14.1,22.55,14.1,11.3q0-5.7-1.9-8.5A6.58,6.58,0,0,0,6.35,0,6.06,6.06,0,0,0,1.8,1.8m24.1,9.7,1.55-.2,1.8-.25q2.1,0,2.1,4.2,0,7.4-5.25,14.5L23.55,33.4a12.14,12.14,0,0,0-.75,1.35q0,1.4,1.85,1.4.85,0,2.7-2.7Q35,22.55,35,11.3T27.1,0a6,6,0,0,0-4.45,1.8A5.7,5.7,0,0,0,20.8,6.2,5.29,5.29,0,0,0,22.25,10,5,5,0,0,0,25.9,11.5Z"/></g></g></svg>