<svg xmlns="http://www.w3.org/2000/svg" viewBox="0 0 35 36.15"><defs><style>.cls-1{fill:#a3a3a3;}</style></defs><title>quote-1</title><g id="Calque_2" data-name="Calque 2"><g id="Calque_1-2" data-name="Calque 1"><path class="cls-1" d="M25.85,13.4A27.5,27.5,0,0,1,29.8,6.2l2.65-3.6q.4-.65.7-1.2,0-1.4-2-1.4-1,0-3,3Q20.9,13.85,20.9,24.75q0,5.75,1.9,8.55a6.62,6.62,0,0,0,5.85,2.85,6.27,6.27,0,0,0,4.55-1.8,6.11,6.11,0,0,0,1.8-4.5A5.47,5.47,0,0,0,33.55,26,4.55,4.55,0,0,0,30,24.4l-3.4.7q-2,0-2.05-4.25a22.34,22.34,0,0,1,1.3-7.45"/><path class="cls-1" d="M10.35,0Q9.45,0,7.4,3,0,13.85,0,24.75,0,30.5,1.95,33.3A6.54,6.54,0,0,0,7.8,36.15a6.21,6.21,0,0,0,4.5-1.8,6.11,6.11,0,0,0,1.8-4.5A5.47,5.47,0,0,0,12.65,26,4.55,4.55,0,0,0,9.1,24.4l-3.4.7q-2.15,0-2.15-4.25a22.2,22.2,0,0,1,1.3-7.4A29.11,29.11,0,0,1,8.75,6.2l2.7-3.65.7-1.15q0-1.4-1.8-1.4"/></g></g></svg>