<svg xmlns="http://www.w3.org/2000/svg" viewBox="0 0 1048.39 749.57"><defs><style>.cls-1{fill:#ffc424;}</style></defs><title>title_chef</title><g id="Calque_2" data-name="Calque 2"><g id="Calque_1-2" data-name="Calque 1"><path class="cls-1" d="M749.64,195.35H635.57V192l10.55-2.88c9.83-2.64,11.26-4.07,11.26-24.68V64.5c0-20.61-1.44-22-11.26-24.68l-10.55-2.88V33.59h72.85v3.35l-14.14,2.88c-10.07,1.92-12.46,4.07-12.46,24.68v96.34c0,22.53,3.36,24.68,13.18,24.68h15.1c24.68,0,32.59-3.35,36.43-13.66L752.28,156l5,1Z"/><path class="cls-1" d="M888.88,195.35H772.41V192L783,189.12c9.83-2.64,11.26-4.07,11.26-24.68V64.5c0-20.61-1.44-22-11.26-24.68l-10.55-2.88V33.59H885.53V65.46h-3.83l-2.88-10.78c-2.4-8.87-7.67-11.26-34.51-11.26H818.66V105h25.4c22,0,25.4-.72,27.8-9.11L874.5,87h3.6v47h-3.6l-2.88-10.07c-2.4-8.39-5.51-9.11-27.56-9.11h-25.4v46c0,22.53,3.36,24.68,13.18,24.68H850.3c24.68,0,31.63-3.83,36.43-13.66l5.27-11,4.07,1Z"/><path class="cls-1" d="M482.34,534.07v-5.54l17.4-4.75c16.22-4.35,18.59-6.72,18.59-40.74V400.76H377.92V483c0,34,2.37,36.39,18.59,40.74l17.41,4.75v5.54H301.58v-5.54L319,523.78c16.22-4.35,18.59-6.72,18.59-40.74V318.09c0-34-2.37-36.39-18.59-40.74l-17.41-4.75v-5.54H413.91v5.54l-17.41,4.75c-16.22,4.35-18.59,6.72-18.59,40.74v65.66H518.34V318.09c0-34-2.37-36.39-18.59-40.74l-17.4-4.75v-5.54H594.68v5.54l-17.4,4.75c-16.22,4.35-18.59,6.72-18.59,40.74V483c0,34,2.37,36.39,18.59,40.74l17.4,4.75v5.54Z"/><path class="cls-1" d="M813,534.07H620.79v-5.54l17.41-4.75c16.22-4.35,18.59-6.72,18.59-40.74V318.09c0-34-2.37-36.39-18.59-40.74l-17.41-4.75v-5.54h186.7v52.61h-6.33l-4.75-17.8c-4-14.64-12.66-18.59-57-18.59H697.13V384.94h41.93c36.39,0,41.93-1.19,45.88-15l4.35-14.64h5.93V432.8H789.3l-4.75-16.61c-4-13.84-9.1-15-45.49-15H697.13v75.95c0,37.18,5.54,40.74,21.76,40.74h30.46c40.74,0,52.21-6.33,60.12-22.55l8.7-18.2,6.72,1.58Z"/><path class="cls-1" d="M1042.06,323.63l-4.75-21.76c-3.16-14.64-12.66-18.59-57-18.59H934.08V392.85H980c36.39,0,42.32-1.19,45.88-15l4.35-16.61h5.93v79.51h-5.93l-4.75-16.61c-4-13.84-9.1-15-45.49-15H934.08v74c0,34,5.93,37.58,22.55,40.74l25.32,4.75v5.54H857.74v-5.54l17.41-4.75c16.22-4.35,18.59-6.72,18.59-40.74V318.09c0-34-2.37-36.39-18.59-40.74l-17.41-4.75v-5.54h190.66v56.56Z"/><path class="cls-1" d="M602.41,713.57c-36,13.76-122.81,36-212.8,36C163,749.57,0,609.82,0,376.9S156.69,0,380.08,0C470.07,0,541,14.82,595,33.88V194.8H575.94l-13.76-59.29c-14.82-65.64-111.17-91-180-91-181,0-257.27,149.28-257.27,312.32,0,193.75,98.46,349.38,290.09,349.38,68.82,0,147.16-27.53,174.69-88.93l24.35-54,19.06,5.3Z"/></g></g></svg>